<svg width="151" height="65" viewBox="0 0 151 65" fill="none" xmlns="http://www.w3.org/2000/svg">
<path d="M74.6157 31.7861V27.0039H76.8103C77.0396 27.0039 77.2689 27.0367 77.4654 27.1349C77.6619 27.2332 77.8257 27.3315 77.9895 27.4952C78.1205 27.659 78.2515 27.8228 78.317 27.9866C78.3825 28.1831 78.448 28.3469 78.448 28.5434C78.448 28.8054 78.3825 29.0675 78.2515 29.2967C78.1205 29.526 77.924 29.7226 77.6947 29.8863C77.4654 30.0501 77.1706 30.1156 76.8758 30.1156H75.4674V31.7861H74.6157ZM75.4346 29.4605H76.7776C76.9413 29.4605 77.0723 29.4278 77.1706 29.3295C77.3016 29.264 77.3671 29.133 77.4327 29.0019C77.4982 28.8709 77.5309 28.7072 77.5309 28.5434C77.5309 28.3796 77.4982 28.2158 77.3999 28.0848C77.3344 27.9538 77.2361 27.8555 77.1051 27.7573C76.9741 27.6918 76.8431 27.659 76.712 27.659H75.4018V29.4605H75.4346Z" fill="#0C1425"/>
<path d="M81.527 31.819C81.1667 31.819 80.8064 31.7534 80.5116 31.6224C80.2168 31.4914 79.9547 31.2949 79.7255 31.0656C79.4962 30.8363 79.3324 30.5743 79.2014 30.2795C79.0704 29.9847 79.0376 29.6899 79.0376 29.3951C79.0376 29.0675 79.1031 28.7728 79.2341 28.478C79.3652 28.1832 79.5289 27.9211 79.7582 27.6918C79.9875 27.4626 80.2495 27.2988 80.5443 27.135C80.8391 27.004 81.1667 26.9385 81.527 26.9385C81.8873 26.9385 82.2476 27.004 82.5424 27.135C82.8372 27.266 83.0992 27.4626 83.3285 27.6918C83.5578 27.9211 83.7216 28.1832 83.8198 28.478C83.9508 28.7728 83.9836 29.0676 83.9836 29.3623C83.9836 29.6899 83.9181 29.9847 83.7871 30.2795C83.656 30.5743 83.4923 30.8363 83.263 31.0656C83.0337 31.2949 82.7717 31.4587 82.4769 31.5897C82.2148 31.7534 81.8873 31.819 81.527 31.819ZM79.8892 29.3951C79.8892 29.6244 79.922 29.8537 80.0202 30.0502C80.0858 30.2467 80.2168 30.4433 80.3478 30.607C80.4788 30.7708 80.6754 30.9018 80.8719 31.0001C81.0684 31.0984 81.2977 31.1311 81.5597 31.1311C81.8218 31.1311 82.051 31.0656 82.2476 30.9673C82.4441 30.8691 82.6406 30.7381 82.7717 30.5743C82.9027 30.4105 83.0009 30.214 83.0992 30.0174C83.1647 29.8209 83.1975 29.5916 83.1975 29.3951C83.1975 29.1658 83.1647 28.9365 83.0992 28.74C83.0337 28.5435 82.9027 28.3469 82.7717 28.1832C82.6406 28.0194 82.4441 27.8884 82.2476 27.7901C82.051 27.6919 81.8218 27.6591 81.5597 27.6591C81.2977 27.6591 81.0684 27.7246 80.8719 27.8229C80.6754 27.9211 80.4788 28.0522 80.3478 28.2159C80.2168 28.3797 80.0858 28.5762 80.0202 28.7728C79.922 28.9693 79.8892 29.1658 79.8892 29.3951Z" fill="#0C1425"/>
<path d="M84.7368 29.3623C84.7368 29.0675 84.8023 28.7727 84.9006 28.5107C84.9989 28.2159 85.1626 27.9866 85.3919 27.7245C85.6212 27.4953 85.8832 27.2987 86.178 27.1677C86.5056 27.0367 86.8331 26.9712 87.2262 26.9712C87.6847 26.9712 88.1106 27.0694 88.4381 27.266C88.7657 27.4625 89.0277 27.7245 89.1915 28.0193L88.5364 28.4124C88.4381 28.2159 88.3071 28.0521 88.1761 27.9538C88.0123 27.8556 87.8813 27.7573 87.6848 27.7245C87.521 27.6918 87.3572 27.659 87.1607 27.659C86.8986 27.659 86.6366 27.7245 86.4401 27.8228C86.2435 27.9211 86.047 28.0521 85.916 28.2159C85.785 28.3796 85.6867 28.5762 85.5884 28.7727C85.5229 28.9692 85.4902 29.1985 85.4902 29.395C85.4902 29.6243 85.5229 29.8536 85.6212 30.0501C85.7195 30.2794 85.8177 30.4432 85.9815 30.607C86.1453 30.7707 86.309 30.9018 86.5056 31C86.7021 31.0983 86.9314 31.131 87.1934 31.131C87.3572 31.131 87.521 31.0983 87.7175 31.0656C87.914 31.0328 88.0778 30.9345 88.2088 30.8035C88.3726 30.6725 88.4709 30.5415 88.5691 30.3449L89.257 30.7052C89.1587 30.9345 88.9949 31.1638 88.7657 31.3276C88.5364 31.4914 88.2743 31.6224 88.0123 31.7206C87.7175 31.8189 87.4555 31.8517 87.1934 31.8517C86.8331 31.8517 86.5056 31.7861 86.178 31.6224C85.8505 31.4586 85.6212 31.2948 85.3919 31.0656C85.1626 30.8363 84.9988 30.5742 84.8678 30.2794C84.7696 29.9519 84.7368 29.6571 84.7368 29.3623Z" fill="#0C1425"/>
<path d="M89.8467 29.3623C89.8467 29.0675 89.9122 28.7727 90.0105 28.5107C90.1087 28.2159 90.2725 27.9866 90.5018 27.7245C90.7311 27.4953 90.9931 27.2987 91.2879 27.1677C91.6155 27.0367 91.943 26.9712 92.3361 26.9712C92.7946 26.9712 93.2204 27.0694 93.548 27.266C93.8755 27.4625 94.1376 27.7245 94.3014 28.0193L93.6463 28.4124C93.548 28.2159 93.417 28.0521 93.2859 27.9538C93.1222 27.8556 92.9911 27.7573 92.7946 27.7245C92.6308 27.6918 92.4671 27.659 92.2705 27.659C92.0085 27.659 91.7465 27.7245 91.5499 27.8228C91.3534 27.9211 91.1896 28.0521 91.0259 28.2159C90.8948 28.3796 90.7966 28.5762 90.6983 28.7727C90.6328 28.9692 90.6 29.1985 90.6 29.395C90.6 29.6243 90.6328 29.8536 90.7311 30.0501C90.8293 30.2794 90.9276 30.4432 91.0914 30.607C91.2551 30.7707 91.4189 30.9018 91.6155 31C91.812 31.0983 92.0413 31.131 92.3033 31.131C92.4671 31.131 92.6309 31.0983 92.8274 31.0656C93.0239 31 93.1877 30.9345 93.3187 30.8035C93.4825 30.6725 93.5807 30.5415 93.679 30.3449L94.3668 30.7052C94.2686 30.9345 94.1048 31.1638 93.8755 31.3276C93.6462 31.4914 93.3842 31.6224 93.1222 31.7206C92.8274 31.8189 92.5653 31.8517 92.3033 31.8517C91.943 31.8517 91.6155 31.7861 91.2879 31.6224C90.9604 31.4586 90.7311 31.2948 90.5018 31.0656C90.2725 30.8363 90.1087 30.5742 89.9777 30.2794C89.9122 29.9519 89.8467 29.6571 89.8467 29.3623Z" fill="#0C1425"/>
<path d="M95.3823 31.7861V27.0039H96.2012V30.738L98.9854 27.0039H99.7387V31.8189H98.9198V28.1503L96.1684 31.8189H95.3823V31.7861Z" fill="#0C1425"/>
<path d="M101.18 31.7862V27.004H101.999V30.738L104.783 27.004H105.536V31.8189H104.717V28.1504L101.966 31.8189H101.18V31.7862ZM103.342 26.6764C103.079 26.6764 102.85 26.6436 102.654 26.5454C102.457 26.4799 102.326 26.3489 102.228 26.2178C102.13 26.0868 102.097 25.9231 102.097 25.7593H102.686C102.686 25.8903 102.752 25.9886 102.85 26.0868C102.948 26.1851 103.112 26.2506 103.374 26.2506C103.604 26.2506 103.767 26.2178 103.898 26.1196C104.029 26.0213 104.062 25.9231 104.062 25.7593H104.652C104.652 25.9231 104.619 26.0868 104.521 26.2178C104.422 26.3489 104.291 26.4799 104.095 26.5454C103.898 26.6109 103.604 26.6764 103.342 26.6764Z" fill="#0C1425"/>
<path d="M106.584 29.3623C106.584 29.0675 106.65 28.7727 106.748 28.5107C106.847 28.2159 107.01 27.9866 107.24 27.7245C107.469 27.4953 107.731 27.2987 108.026 27.1677C108.353 27.0367 108.681 26.9712 109.074 26.9712C109.532 26.9712 109.958 27.0694 110.286 27.266C110.613 27.4625 110.875 27.7245 111.039 28.0193L110.384 28.4124C110.286 28.2159 110.155 28.0521 110.024 27.9538C109.86 27.8556 109.729 27.7573 109.532 27.7245C109.369 27.6918 109.205 27.659 109.008 27.659C108.746 27.659 108.484 27.7245 108.288 27.8228C108.091 27.9211 107.895 28.0521 107.764 28.2159C107.633 28.3796 107.534 28.5762 107.436 28.7727C107.371 28.9692 107.338 29.1985 107.338 29.395C107.338 29.6243 107.371 29.8536 107.469 30.0501C107.567 30.2794 107.665 30.4432 107.829 30.607C107.993 30.7707 108.157 30.9018 108.353 31C108.55 31.0983 108.779 31.131 109.041 31.131C109.205 31.131 109.369 31.0983 109.565 31.0656C109.762 31.0328 109.925 30.9345 110.056 30.8035C110.22 30.6725 110.319 30.5415 110.417 30.3449L111.105 30.7052C111.006 30.9345 110.843 31.1638 110.613 31.3276C110.384 31.4914 110.122 31.6224 109.86 31.7206C109.565 31.8189 109.303 31.8517 109.041 31.8517C108.681 31.8517 108.353 31.7861 108.026 31.6224C107.698 31.4586 107.469 31.2948 107.24 31.0656C107.01 30.8363 106.846 30.5742 106.715 30.2794C106.65 29.9519 106.584 29.6571 106.584 29.3623Z" fill="#0C1425"/>
<path d="M112.12 31.7861V27.0039H112.939V29.0019H113.561L115.199 27.0039H116.149L114.249 29.3295L116.28 31.8189H115.265L113.561 29.7226H112.939V31.8189H112.12V31.7861Z" fill="#0C1425"/>
<path d="M118.671 27.0039H119.457L121.488 31.8189H120.636L120.145 30.5087H118.081L117.557 31.8189H116.673L118.671 27.0039ZM119.883 29.9191L119.064 27.8228L118.245 29.9191H119.883Z" fill="#0C1425"/>
<path d="M122.143 31.7862L123.453 29.8209C123.126 29.7226 122.831 29.5589 122.667 29.2968C122.471 29.0348 122.372 28.74 122.372 28.4124C122.372 28.1504 122.438 27.8884 122.602 27.6591C122.733 27.4298 122.962 27.266 123.191 27.135C123.453 27.004 123.748 26.9385 124.076 26.9385H125.943V31.7534H125.124V29.8864H124.436C124.403 29.8864 124.37 29.8864 124.338 29.8864C124.305 29.8864 124.272 29.8864 124.239 29.8864L123.027 31.7534H122.143V31.7862ZM124.174 29.2641H125.156V27.6591H124.207C124.01 27.6591 123.846 27.6918 123.715 27.7573C123.552 27.8229 123.453 27.9211 123.355 28.0194C123.257 28.1504 123.224 28.2814 123.224 28.4452C123.224 28.609 123.257 28.7728 123.355 28.871C123.42 29.002 123.552 29.1003 123.683 29.1658C123.814 29.2313 123.977 29.2641 124.174 29.2641Z" fill="#0C1425"/>
<path d="M74.6484 41.2852V36.4702H75.4673V38.4683H76.0896L77.7274 36.4702H78.6773L76.7775 38.7958L78.8083 41.2852H77.7929L76.0896 39.1889H75.4673V41.2852H74.6484Z" fill="#0C1425"/>
<path d="M79.7256 41.2852V36.4702H80.5445V40.2043L83.3286 36.4702H84.082V41.2852H83.2631V37.6166L80.5117 41.2852H79.7256Z" fill="#0C1425"/>
<path d="M85.4902 41.2852V36.4702H89.126V37.1253H86.3091V38.4683H87.8158C88.4054 38.4683 88.8312 38.5993 89.126 38.8286C89.4208 39.0906 89.5518 39.4181 89.5518 39.8112C89.5518 40.0732 89.4863 40.3353 89.3553 40.5318C89.2243 40.7611 89.0605 40.9249 88.7985 41.0559C88.5364 41.1869 88.2416 41.2524 87.8813 41.2524H85.4902V41.2852ZM86.3091 40.6301H87.7831C88.0124 40.6301 88.1761 40.5973 88.3399 40.4991C88.5037 40.4008 88.5692 40.3353 88.6347 40.2043C88.7002 40.0732 88.733 39.975 88.733 39.844C88.733 39.7129 88.7002 39.5819 88.6675 39.4836C88.602 39.3854 88.5037 39.2871 88.3727 39.2216C88.2416 39.1561 88.0451 39.1234 87.7831 39.1234H86.3419V40.6301H86.3091Z" fill="#0C1425"/>
<path d="M94.0722 40.5974V41.2525H90.502V36.4375H94.0067V37.0926H91.3208V38.4683H93.6464V39.0907H91.3208V40.5646H94.0722V40.5974Z" fill="#0C1425"/>
<path d="M95.0874 41.2852V36.4702H97.282C97.5113 36.4702 97.7406 36.503 97.9371 36.6012C98.1336 36.6995 98.2974 36.7978 98.4612 36.9615C98.5922 37.1253 98.7232 37.2891 98.7887 37.4529C98.8542 37.6494 98.9197 37.8131 98.9197 38.0097C98.9197 38.2717 98.8542 38.5338 98.7232 38.7631C98.5922 38.9923 98.3957 39.1889 98.1664 39.3526C97.9371 39.5164 97.6423 39.5819 97.3475 39.5819H95.939V41.2524H95.0874V41.2852ZM95.9063 38.9268H97.2492C97.413 38.9268 97.544 38.8941 97.6423 38.7958C97.7733 38.7303 97.8388 38.5993 97.9043 38.4683C97.9698 38.3372 98.0026 38.1735 98.0026 38.0097C98.0026 37.8459 97.9698 37.6821 97.8716 37.5511C97.8061 37.4201 97.7078 37.3218 97.5768 37.2236C97.4458 37.1581 97.3147 37.1253 97.1837 37.1253H95.8735V38.9268H95.9063Z" fill="#0C1425"/>
<path d="M99.5093 38.8286C99.5093 38.5338 99.5748 38.239 99.6731 37.977C99.7713 37.6822 99.9351 37.4529 100.164 37.1909C100.394 36.9288 100.656 36.7651 100.95 36.634C101.278 36.503 101.606 36.4375 101.999 36.4375C102.457 36.4375 102.883 36.5358 103.211 36.7323C103.538 36.9288 103.8 37.1909 103.964 37.4857L103.309 37.8787C103.211 37.6822 103.08 37.5184 102.949 37.4201C102.785 37.3219 102.654 37.2236 102.457 37.1909C102.293 37.1581 102.13 37.1254 101.933 37.1254C101.671 37.1254 101.409 37.1909 101.213 37.2891C101.016 37.3874 100.852 37.5184 100.688 37.6822C100.557 37.846 100.459 38.0425 100.361 38.239C100.295 38.4355 100.263 38.6648 100.263 38.8614C100.263 39.0907 100.295 39.3199 100.394 39.5165C100.492 39.7458 100.59 39.9095 100.754 40.0733C100.918 40.2371 101.082 40.3681 101.278 40.4663C101.475 40.5646 101.704 40.5974 101.966 40.5974C102.13 40.5974 102.293 40.5646 102.49 40.5319C102.687 40.4664 102.85 40.4008 102.981 40.2698C103.145 40.1388 103.243 40.0078 103.342 39.8112L104.029 40.1716C103.931 40.4008 103.767 40.6301 103.538 40.7939C103.309 40.9577 103.047 41.0887 102.785 41.187C102.49 41.2852 102.228 41.318 101.966 41.318C101.606 41.318 101.278 41.2525 100.95 41.0887C100.656 40.9577 100.394 40.7611 100.164 40.5319C99.9351 40.3026 99.7713 40.0405 99.6403 39.7458C99.5748 39.451 99.5093 39.1234 99.5093 38.8286Z" fill="#0C1425"/>
<path d="M105.045 41.2852V36.4702H109.139V41.2852H108.32V37.1581H105.864V41.2852H105.045Z" fill="#0C1425"/>
<path d="M112.644 41.318C112.284 41.318 111.924 41.2525 111.629 41.1214C111.334 40.9904 111.072 40.7939 110.843 40.5646C110.613 40.3353 110.45 40.0733 110.319 39.7785C110.188 39.4837 110.155 39.1889 110.155 38.8941C110.155 38.5666 110.22 38.2718 110.351 37.977C110.482 37.6822 110.646 37.4201 110.875 37.1909C111.105 36.9616 111.367 36.7978 111.662 36.634C111.956 36.503 112.284 36.4375 112.644 36.4375C113.004 36.4375 113.365 36.503 113.66 36.634C113.954 36.7651 114.216 36.9616 114.446 37.1909C114.675 37.4201 114.839 37.6822 114.937 37.977C115.068 38.2718 115.101 38.5666 115.101 38.8614C115.101 39.1889 115.035 39.4837 114.904 39.7785C114.773 40.0733 114.609 40.3353 114.38 40.5646C114.151 40.7939 113.889 40.9577 113.594 41.0887C113.332 41.2525 113.004 41.318 112.644 41.318ZM111.006 38.8614C111.006 39.0907 111.039 39.3199 111.137 39.5165C111.203 39.713 111.334 39.9095 111.465 40.0733C111.596 40.2371 111.793 40.3681 111.989 40.4663C112.186 40.5646 112.415 40.5974 112.677 40.5974C112.939 40.5974 113.168 40.5319 113.365 40.4336C113.561 40.3353 113.725 40.2043 113.889 40.0405C114.053 39.8768 114.118 39.6802 114.216 39.4837C114.282 39.2872 114.315 39.0579 114.315 38.8614C114.315 38.6321 114.282 38.4028 114.216 38.2063C114.151 38.0097 114.02 37.8132 113.889 37.6494C113.758 37.4857 113.561 37.3546 113.365 37.2564C113.168 37.1581 112.939 37.1254 112.677 37.1254C112.415 37.1254 112.186 37.1909 111.989 37.2891C111.793 37.3874 111.596 37.5184 111.465 37.6822C111.334 37.846 111.203 38.0425 111.137 38.239C111.039 38.4355 111.006 38.6648 111.006 38.8614Z" fill="#0C1425"/>
<path d="M116.182 41.2852V36.4702H118.376C118.606 36.4702 118.835 36.503 119.031 36.6012C119.228 36.6995 119.392 36.7978 119.555 36.9615C119.686 37.1253 119.817 37.2891 119.883 37.4529C119.948 37.6494 120.014 37.8131 120.014 38.0097C120.014 38.2717 119.948 38.5338 119.817 38.7631C119.686 38.9923 119.49 39.1889 119.261 39.3526C119.031 39.5164 118.737 39.5819 118.442 39.5819H117.033V41.2524H116.182V41.2852ZM117.001 38.9268H118.343C118.507 38.9268 118.638 38.8941 118.737 38.7958C118.868 38.7303 118.933 38.5993 118.999 38.4683C119.064 38.3372 119.097 38.1735 119.097 38.0097C119.097 37.8459 119.064 37.6821 118.966 37.5511C118.9 37.4201 118.802 37.3218 118.671 37.2236C118.54 37.1581 118.409 37.1253 118.278 37.1253H116.968V38.9268H117.001Z" fill="#0C1425"/>
<path d="M124.731 37.158H122.995V41.2851H122.176V37.158H120.44V36.5029H124.731V37.158Z" fill="#0C1425"/>
<path d="M125.648 41.2852V36.4702H126.467V40.2043L129.251 36.4702H130.004V41.2852H129.185V37.6166L126.434 41.2852H125.648Z" fill="#0C1425"/>
<path d="M135.474 40.0405C135.474 40.3025 135.409 40.5318 135.245 40.6956C135.114 40.8921 134.917 41.0231 134.655 41.1214C134.426 41.2197 134.131 41.2852 133.837 41.2852H131.347V36.4702H134.033C134.262 36.4702 134.492 36.5357 134.655 36.634C134.819 36.765 134.983 36.896 135.048 37.0925C135.147 37.2891 135.179 37.4856 135.179 37.6821C135.179 37.9114 135.114 38.1407 134.983 38.3372C134.852 38.5338 134.655 38.6975 134.426 38.7958C134.721 38.8613 134.95 39.0251 135.147 39.2544C135.376 39.4837 135.474 39.7457 135.474 40.0405ZM132.199 37.1253V38.5338H133.706C133.837 38.5338 133.968 38.501 134.066 38.4355C134.164 38.37 134.262 38.3045 134.328 38.1735C134.393 38.0752 134.426 37.9442 134.426 37.8132C134.426 37.6821 134.393 37.5511 134.328 37.4529C134.262 37.3546 134.197 37.2563 134.099 37.1908C134 37.1253 133.869 37.0925 133.738 37.0925H132.199V37.1253ZM134.623 39.9095C134.623 39.7785 134.59 39.6474 134.524 39.5492C134.459 39.4509 134.393 39.3526 134.262 39.2871C134.164 39.2216 134.033 39.1889 133.902 39.1889H132.199V40.6628H133.869C134 40.6628 134.131 40.6301 134.262 40.5646C134.361 40.4991 134.459 40.4008 134.524 40.3025C134.59 40.1387 134.623 40.0405 134.623 39.9095Z" fill="#0C1425"/>
<path d="M140.748 36.4702V41.2852H139.929V39.1561H137.309V41.2852H136.49V36.4702H137.309V38.4683H139.929V36.4702H140.748Z" fill="#0C1425"/>
<path d="M143.63 36.4702H144.416L146.447 41.2852H145.596L145.104 39.975H143.041L142.517 41.2852H141.632L143.63 36.4702ZM144.81 39.4182L143.991 37.3218L143.172 39.4182H144.81Z" fill="#0C1425"/>
<path d="M147.102 41.2852L148.412 39.3199C148.085 39.2217 147.79 39.0579 147.626 38.7959C147.43 38.5338 147.331 38.239 147.331 37.9115C147.331 37.6494 147.397 37.3874 147.561 37.1581C147.692 36.9288 147.921 36.7651 148.15 36.634C148.412 36.503 148.707 36.4375 149.035 36.4375H150.902V41.2525H150.083V39.3854H149.395C149.362 39.3854 149.329 39.3854 149.297 39.3854C149.264 39.3854 149.231 39.3854 149.198 39.3854L147.986 41.2525H147.102V41.2852ZM149.133 38.7303H150.116V37.1254H149.166C148.969 37.1254 148.805 37.1581 148.674 37.2236C148.511 37.2891 148.412 37.3874 148.314 37.4857C148.216 37.6167 148.183 37.7477 148.183 37.9115C148.183 38.0752 148.216 38.239 148.314 38.3373C148.379 38.4683 148.511 38.5666 148.642 38.6321C148.773 38.6976 148.936 38.7303 149.133 38.7303Z" fill="#0C1425"/>
<path d="M77.9894 50.7514V46.6243H76.2534L76.2207 47.5087C76.1879 48.1638 76.1224 48.6879 76.0569 49.1137C75.9586 49.5395 75.8603 49.8671 75.6966 50.0963C75.5328 50.3256 75.3363 50.5222 75.107 50.6204C74.8777 50.7187 74.5829 50.7842 74.2554 50.7842V50.1291C74.4519 50.1291 74.5829 50.0963 74.7467 49.9981C74.8777 49.9326 75.0087 49.7688 75.107 49.5723C75.2053 49.3757 75.2708 49.0809 75.3363 48.7206C75.4018 48.3603 75.4345 47.869 75.4345 47.3122L75.5001 45.9692H78.8411V50.7842H77.9894V50.7514Z" fill="#0C1425"/>
<path d="M80.2168 50.751V45.936H81.0357V49.6701L83.8198 45.936H84.5732V50.751H83.7543V47.0825L81.0029 50.751H80.2168Z" fill="#0C1425"/>
<path d="M85.9814 50.751V45.936H89.0604V46.5911H86.8003V50.7183H85.9814V50.751Z" fill="#0C1425"/>
<path d="M91.5171 45.936H92.3032L94.334 50.751H93.4824L92.9911 49.4408H90.9275L90.4034 50.751H89.519L91.5171 45.936ZM92.729 48.884L91.9101 46.7877L91.0913 48.884H92.729Z" fill="#0C1425"/>
<path d="M70.2589 26.7749H69.7676V50.7187H70.2589V26.7749Z" fill="#0C1425"/>
<path d="M47.1011 54.7149L27.7103 50.2275L16.1478 52.4876L20.799 40.6631H14.0187L5.89551 61.3642L27.7103 56.8768L49.6888 61.3642L47.1011 54.7149Z" fill="#0C1425"/>
<path d="M25.9743 27.1678L31.2478 13.5418L27.7758 4.92725L20.8317 22.8769C20.799 22.8769 24.9261 23.3027 25.9743 27.1678Z" fill="#0C1425"/>
<path d="M3.93042 30.7707L0.130859 24.187H17.8512C22.7972 24.187 25.2538 26.6436 25.2538 31.5896C25.2538 36.5356 22.7972 38.9922 17.8512 38.9922H10.4486V45.5759L3.8649 48.8842V32.4085H17.8512C18.4081 32.4085 18.6701 32.1464 18.6701 31.5896C18.6701 31.0328 18.4081 30.7707 17.8512 30.7707H3.93042Z" fill="#0C1425"/>
<path d="M35.0804 24.1216V33.555L45.2344 24.1216H53.8162L41.5987 36.1426L48.8702 48.8188H41.1401L36.6854 41.0886L28.7915 48.7205V24.1216H35.0804Z" fill="#0C1425"/>
<path d="M22.5679 13.4766C16.4755 14.5902 11.1365 17.8657 7.33691 22.4186H11.3002C14.0517 19.7655 17.4582 17.7675 21.2577 16.7521L22.5679 13.4766Z" fill="#0C1425"/>
<path d="M47.3959 22.4184C43.8257 18.1275 38.9452 15.0158 33.3441 13.7056L32.2632 16.457C36.5541 17.3741 40.3864 19.4704 43.4326 22.4184H47.3959Z" fill="#0C1425"/>
<path d="M35.7681 60.3813C33.1805 61.3967 30.3635 61.9536 27.4483 61.9536C24.5987 61.9536 21.8473 61.4295 19.3251 60.4796H19.2924L14.5757 61.4623C18.3752 63.6241 22.7317 64.8688 27.4156 64.8688C32.1323 64.8688 36.587 63.5913 40.3865 61.364L35.7681 60.3813Z" fill="#0C1425"/>
<path d="M50.2787 38.9269C50.2787 41.2197 49.9511 43.4143 49.3288 45.5106L51.2613 48.7533C52.506 45.7399 53.1939 42.3989 53.1939 38.9269C53.1939 35.6514 52.6043 32.5397 51.4906 29.6572L49.1978 31.8846C49.9184 34.1447 50.2787 36.503 50.2787 38.9269Z" fill="#0C1425"/>
</svg>
