<svg width="24" height="23" viewBox="0 0 24 23" fill="none" xmlns="http://www.w3.org/2000/svg">
<path d="M1.60404 10.0427C7.8675 6.91447 12.0441 4.85217 14.1339 3.85577C20.1007 1.01084 21.3405 0.516651 22.1486 0.500158C22.3263 0.496743 22.7238 0.547236 22.9812 0.786682C23.1985 0.988864 23.2583 1.26198 23.287 1.45368C23.3156 1.64537 23.3512 2.08205 23.3229 2.42325C22.9995 6.31774 21.6005 15.7686 20.8887 20.1305C20.5875 21.9762 19.9945 22.5951 19.4203 22.6556C18.1726 22.7872 17.2252 21.7104 16.0167 20.8023C14.1257 19.3814 13.0574 18.4968 11.2219 17.1102C9.10059 15.5078 10.4757 14.627 11.6847 13.1877C12.001 12.811 17.4984 7.07899 17.6048 6.559C17.6182 6.49397 17.6305 6.25156 17.5049 6.12356C17.3792 5.99556 17.1938 6.03933 17.06 6.07414C16.8704 6.12349 13.8495 8.41236 7.99732 12.9408C7.13984 13.6157 6.36317 13.9446 5.6673 13.9274C4.90015 13.9084 3.42448 13.4301 2.32747 13.0214C0.981933 12.52 -0.0874682 12.2549 0.0056527 11.4034C0.0541558 10.9599 0.586952 10.5063 1.60404 10.0427Z" fill="#030B28"/>
</svg>
