<svg width="25" height="25" viewBox="0 0 25 25" fill="none" xmlns="http://www.w3.org/2000/svg">
<g clip-path="url(#clip0_137_902)">
<path fill-rule="evenodd" clip-rule="evenodd" d="M19.6429 22.3823C19.6484 21.6952 19.3932 21.0315 18.9286 20.5252L11.3357 12.5002L18.9286 4.47519C19.3938 3.97036 19.652 3.309 19.652 2.62251C19.652 1.93602 19.3938 1.27466 18.9286 0.769831C18.7061 0.527063 18.4355 0.333217 18.1341 0.200605C17.8327 0.0679926 17.507 -0.000488281 17.1777 -0.000488281C16.8484 -0.000488281 16.5227 0.0679926 16.2213 0.200605C15.9198 0.333217 15.6493 0.527063 15.4268 0.769831L6.08393 10.6484C5.61677 11.1512 5.35712 11.8121 5.35712 12.4984C5.35712 13.1847 5.61677 13.8456 6.08393 14.3484L15.4179 24.2305C15.6404 24.4733 15.9109 24.6672 16.2123 24.7998C16.5137 24.9324 16.8395 25.0009 17.1688 25.0009C17.4981 25.0009 17.8238 24.9324 18.1252 24.7998C18.4266 24.6672 18.6972 24.4733 18.9196 24.2305C19.3837 23.7275 19.639 23.0667 19.6339 22.3823" fill="#CFCFCF"/>
</g>
<defs>
<clipPath id="clip0_137_902">
<rect width="25" height="25" fill="white"/>
</clipPath>
</defs>
</svg>
