<svg width="25" height="25" viewBox="0 0 25 25" fill="none" xmlns="http://www.w3.org/2000/svg">
<g clip-path="url(#clip0_137_906)">
<path fill-rule="evenodd" clip-rule="evenodd" d="M5.35714 22.3823C5.35157 21.6952 5.60683 21.0315 6.07142 20.5252L13.6643 12.5002L6.07142 4.47519C5.60622 3.97036 5.34796 3.309 5.34796 2.62251C5.34796 1.93602 5.60622 1.27466 6.07142 0.769831C6.29392 0.527063 6.56447 0.333217 6.86589 0.200605C7.16731 0.0679926 7.49301 -0.000488281 7.82232 -0.000488281C8.15162 -0.000488281 8.47733 0.0679926 8.77875 0.200605C9.08017 0.333217 9.35072 0.527063 9.57321 0.769831L18.9161 10.6484C19.3832 11.1512 19.6429 11.8121 19.6429 12.4984C19.6429 13.1847 19.3832 13.8456 18.9161 14.3484L9.58214 24.2305C9.35964 24.4733 9.0891 24.6672 8.78767 24.7998C8.48625 24.9324 8.16055 25.0009 7.83125 25.0009C7.50194 25.0009 7.17624 24.9324 6.87482 24.7998C6.5734 24.6672 6.30285 24.4733 6.08035 24.2305C5.61633 23.7275 5.36098 23.0667 5.36607 22.3823" fill="#CFCFCF"/>
</g>
<defs>
<clipPath id="clip0_137_906">
<rect width="25" height="25" fill="white" transform="matrix(-1 0 0 1 25 0)"/>
</clipPath>
</defs>
</svg>
