<svg width="25" height="25" viewBox="0 0 25 25" fill="none" xmlns="http://www.w3.org/2000/svg">
<g clip-path="url(#clip0_137_1028)">
<path fill-rule="evenodd" clip-rule="evenodd" d="M6.25 6.19484C6.45699 6.19484 6.66194 6.15404 6.85314 6.07478C7.04435 5.99552 7.21805 5.87934 7.36433 5.7329C7.5106 5.58646 7.62658 5.41262 7.70563 5.22133C7.78467 5.03003 7.82524 4.82503 7.825 4.61805V1.7752C7.825 1.56836 7.78427 1.36356 7.70511 1.17247C7.62596 0.981381 7.50995 0.807754 7.3637 0.661502C7.21744 0.51525 7.04382 0.399236 6.85273 0.320085C6.66164 0.240934 6.45684 0.200195 6.25 0.200195C6.04317 0.200195 5.83837 0.240934 5.64728 0.320085C5.45619 0.399236 5.28256 0.51525 5.13631 0.661502C4.99006 0.807754 4.87404 0.981381 4.79489 1.17247C4.71574 1.36356 4.675 1.56836 4.675 1.7752V4.61805C4.67477 4.82503 4.71533 5.03003 4.79438 5.22133C4.87343 5.41262 4.9894 5.58646 5.13568 5.7329C5.28195 5.87934 5.45566 5.99552 5.64687 6.07478C5.83807 6.15404 6.04302 6.19484 6.25 6.19484Z" fill="white"/>
<path fill-rule="evenodd" clip-rule="evenodd" d="M18.75 6.19484C18.957 6.19484 19.1619 6.15404 19.3531 6.07478C19.5443 5.99552 19.7181 5.87934 19.8643 5.7329C20.0106 5.58646 20.1266 5.41262 20.2056 5.22133C20.2847 5.03003 20.3252 4.82503 20.325 4.61805V1.7752C20.325 1.35748 20.1591 0.956872 19.8637 0.661502C19.5683 0.366132 19.1677 0.200195 18.75 0.200195C18.3323 0.200195 17.9317 0.366132 17.6363 0.661502C17.3409 0.956872 17.175 1.35748 17.175 1.7752V4.61805C17.1748 4.82503 17.2153 5.03003 17.2944 5.22133C17.3734 5.41262 17.4894 5.58646 17.6357 5.7329C17.782 5.87934 17.9557 5.99552 18.1469 6.07478C18.3381 6.15404 18.543 6.19484 18.75 6.19484Z" fill="white"/>
<path fill-rule="evenodd" clip-rule="evenodd" d="M22.6214 2.30742V4.90564C22.6426 5.89204 22.3007 6.85186 21.6607 7.60277C21.0208 8.35368 20.1273 8.84338 19.15 8.97885C18.6108 9.03461 18.0659 8.97651 17.5506 8.80833C17.0353 8.64014 16.561 8.36561 16.1586 8.00252C15.7561 7.63942 15.4343 7.19585 15.2141 6.70051C14.9939 6.20518 14.8802 5.66913 14.8804 5.12706V2.93599C14.8799 2.76581 14.8119 2.60275 14.6914 2.48258C14.5709 2.36241 14.4077 2.29492 14.2375 2.29492H10.7625C10.5925 2.29492 10.4294 2.36246 10.3092 2.48269C10.189 2.60291 10.1214 2.76597 10.1214 2.93599V4.90028C10.1439 5.88759 9.80265 6.84872 9.16256 7.60076C8.52246 8.35281 7.62822 8.84328 6.65 8.97885C6.11081 9.03461 5.56592 8.97651 5.0506 8.80833C4.53529 8.64014 4.06104 8.36561 3.65855 8.00252C3.25606 7.63942 2.93431 7.19585 2.71413 6.70051C2.49394 6.20518 2.38023 5.66913 2.38036 5.12706V2.30742C1.74042 2.33808 1.13668 2.61324 0.693743 3.07612C0.250802 3.539 0.00246948 4.15426 0 4.79492L0 22.2949C0 22.958 0.263392 23.5938 0.732233 24.0627C1.20107 24.5315 1.83696 24.7949 2.5 24.7949H22.5C23.163 24.7949 23.7989 24.5315 24.2678 24.0627C24.7366 23.5938 25 22.958 25 22.2949V4.79492C24.9976 4.15455 24.7495 3.53954 24.3069 3.07671C23.8643 2.61388 23.261 2.33852 22.6214 2.30742ZM20.5357 19.2414C20.5343 19.6444 20.3736 20.0306 20.0885 20.3156C19.8035 20.6006 19.4174 20.7614 19.0143 20.7628H5.62143C5.21836 20.7614 4.83219 20.6006 4.54718 20.3156C4.26216 20.0306 4.10141 19.6444 4.1 19.2414V13.3128C4.1 12.9079 4.26086 12.5195 4.54718 12.2332C4.83351 11.9469 5.22186 11.786 5.62679 11.786H19.0196C19.4227 11.7874 19.8089 11.9482 20.0939 12.2332C20.3789 12.5182 20.5397 12.9043 20.5411 13.3074L20.5357 19.2414Z" fill="white"/>
</g>
<defs>
<clipPath id="clip0_137_1028">
<rect width="25" height="25" fill="white"/>
</clipPath>
</defs>
</svg>
