<svg width="81" height="42" viewBox="0 0 81 42" fill="none" xmlns="http://www.w3.org/2000/svg">
<g clip-path="url(#clip0_411_111)">
<path d="M8.91316 18.0078L4.7587 25.2072H6.08503L9.59955 19.1896L8.91316 18.0078Z" fill="black"/>
<path d="M8.58289 17.4294L6.82821 14.3896L0.583618 25.2067H1.93575L4.42843 20.9336L4.96516 21.2381L2.61698 25.2016H4.05685L8.58289 17.4294ZM5.56381 20.1749L5.01676 19.8756L6.80241 16.8875L7.14818 17.4345L5.56381 20.1749Z" fill="black"/>
<path d="M9.9505 19.7979L6.8024 25.2064H8.12873L9.88341 22.1976L10.2447 22.8169L8.85125 25.2064H10.2292L10.9104 23.9936L11.313 24.6026L10.9569 25.2116H13.078L9.9505 19.7979Z" fill="black"/>
<path d="M13.0728 25.9653C12.9954 26.0427 12.918 26.1201 12.8458 26.1975C12.6445 26.4091 12.4432 26.6259 12.2419 26.8375C12.2261 26.8543 12.217 26.8763 12.2161 26.8994V27.6116H11.8239V26.9149C11.8232 26.8887 11.8142 26.8634 11.7981 26.8426C11.5298 26.5588 11.2614 26.2698 10.993 25.9859C10.9834 25.9765 10.9747 25.9662 10.9672 25.955H11.442C11.4548 25.9546 11.4676 25.9572 11.4792 25.9626C11.4908 25.968 11.5011 25.976 11.5091 25.9859L12.02 26.5588L12.0458 26.5846L12.2729 26.3369C12.3813 26.2182 12.4897 26.0995 12.5929 25.9808C12.5997 25.9711 12.6092 25.9635 12.6201 25.9589C12.6311 25.9544 12.6431 25.953 12.6548 25.955H13.0728V25.9653Z" fill="black"/>
<path d="M6.50303 26.3738L6.11597 26.4409V26.2551H4.9135V27.2976H6.11081V26.9363H5.48635V26.6525H6.49271C6.49271 26.6628 6.49787 26.668 6.49787 26.6783V27.2769C6.49699 27.3116 6.49354 27.3461 6.48755 27.3802C6.45659 27.535 6.37401 27.5969 6.19339 27.6124C6.15053 27.6168 6.10744 27.6185 6.06436 27.6176H4.94447C4.89286 27.6176 4.84125 27.6124 4.78964 27.6072C4.6245 27.5814 4.55224 27.5092 4.53676 27.3492C4.53236 27.3063 4.53064 27.2632 4.5316 27.2202V26.3377C4.53074 26.2998 4.53247 26.2618 4.53676 26.2241C4.56257 26.059 4.62966 25.9919 4.7948 25.9713C4.83757 25.9653 4.88065 25.9618 4.92382 25.9609H6.10565C6.17183 25.9616 6.23768 25.9702 6.30176 25.9867C6.3444 25.9937 6.38377 26.0139 6.41433 26.0445C6.44488 26.075 6.46508 26.1144 6.47207 26.157C6.48755 26.2241 6.49271 26.2964 6.50303 26.3738Z" fill="black"/>
<path d="M10.4201 26.5747V26.2598H9.3828V27.3023H10.4201V26.9462L10.6885 27.003C10.7298 27.0082 10.7814 27.0082 10.7969 27.034C10.8087 27.0724 10.8122 27.1128 10.8072 27.1527C10.8054 27.2373 10.7985 27.3218 10.7865 27.4055C10.7815 27.4545 10.7597 27.5001 10.725 27.5349C10.6902 27.5697 10.6445 27.5914 10.5956 27.5965C10.5309 27.6087 10.4653 27.6156 10.3995 27.6171H9.39312C9.3448 27.6163 9.29656 27.6128 9.24861 27.6068C9.07831 27.581 9.00606 27.5036 8.99057 27.3333C8.98541 27.2817 8.98541 27.2301 8.98541 27.1785V26.3424C8.98628 26.2958 8.98973 26.2493 8.99573 26.2031C9.0267 26.0431 9.09379 25.9812 9.25378 25.9605C9.30171 25.9543 9.34995 25.9509 9.39828 25.9502H10.4098C10.4759 25.9512 10.5418 25.9598 10.6059 25.976C10.6493 25.9833 10.6892 26.0042 10.7198 26.0358C10.7505 26.0674 10.7702 26.1079 10.7762 26.1515C10.7917 26.2598 10.7917 26.3734 10.802 26.4869C10.8011 26.4926 10.7987 26.498 10.795 26.5025C10.7914 26.507 10.7867 26.5105 10.7814 26.5127C10.6678 26.5334 10.544 26.554 10.4201 26.5747Z" fill="black"/>
<path d="M2.94733 26.2448V26.6112H3.71114V26.895H2.95249V27.3028H4.27366V27.6176H2.56027V25.9609H4.25818V26.2448H2.94733Z" fill="black"/>
<path d="M6.5856 27.6235L6.78171 27.2777C7.02427 26.8493 7.26167 26.421 7.50423 25.9978C7.50874 25.9855 7.51739 25.9752 7.52869 25.9686C7.54 25.962 7.55324 25.9596 7.56616 25.9617H7.87065C7.88006 25.961 7.88947 25.9631 7.89772 25.9677C7.90597 25.9722 7.9127 25.9791 7.91709 25.9875L8.83572 27.5873C8.84181 27.599 8.84699 27.611 8.8512 27.6235H8.45382C8.44091 27.6256 8.42766 27.6231 8.41635 27.6165C8.40505 27.61 8.3964 27.5996 8.39189 27.5873C8.34028 27.4893 8.28351 27.3912 8.2319 27.288C8.22881 27.2787 8.22232 27.2708 8.21372 27.266C8.20511 27.2613 8.19502 27.2599 8.18546 27.2622H7.19974C7.1891 27.262 7.17862 27.2648 7.16949 27.2703C7.16037 27.2758 7.15297 27.2837 7.14813 27.2932C7.09652 27.3964 7.03975 27.4944 6.98815 27.5925C6.98386 27.6024 6.97658 27.6107 6.96732 27.6163C6.95806 27.6218 6.9473 27.6244 6.93654 27.6235C6.81784 27.6183 6.7043 27.6235 6.5856 27.6235ZM7.33392 26.9526H8.05128L7.69518 26.2868L7.33392 26.9526Z" fill="black"/>
<path d="M2.21444 27.3086V27.6234H0.583618V25.9668H0.97068V27.3138H2.21444V27.3086Z" fill="black"/>
<path d="M32.9523 18.0176V24.4067H31.1253V18.0176H32.9523Z" fill="black"/>
<path d="M36.7351 19.3852H35.5946V24.4067H33.7676V18.0176H40.6161C41.225 18.0176 41.5295 18.3221 41.5295 18.931V24.4067H39.7026V19.6123C39.7026 19.4626 39.6252 19.3852 39.4755 19.3852H38.562V24.4067H36.7351V19.3852Z" fill="black"/>
<path d="M44.1719 18.0176V23.0391H47.8258L47.3716 24.4067H42.3502V18.0176H44.1719Z" fill="black"/>
<path d="M50.4681 19.3852V20.6393H53.4356V21.7798H50.4681V23.0339H54.122L53.6678 24.4015H48.6463V18.0176H54.122L53.6678 19.3852H50.4681Z" fill="black"/>
<path d="M55.8457 24.4067C55.2367 24.4067 54.9323 24.1022 54.9323 23.4932V18.931C54.9323 18.3221 55.2367 18.0176 55.8457 18.0176H60.4079L59.9537 19.3852H56.9863C56.8366 19.3852 56.7592 19.4626 56.7592 19.6123V22.8068C56.7592 22.9616 56.8366 23.0339 56.9863 23.0339H58.5861V21.7798H57.6726V20.6393H60.413V24.4067H55.8457Z" fill="black"/>
<path d="M25.4898 24.4079H23.7093L26.1297 18.0137H27.9566L30.3771 24.4079H28.5966L28.1837 23.2674H25.9026L25.4898 24.4079ZM26.3103 22.0804H27.7709L27.038 19.9335L26.3103 22.0804Z" fill="black"/>
<path d="M63.1792 24.4079H61.3987L63.8191 18.0137H65.6461L68.0665 24.4079H66.286L65.8731 23.2674H63.5921L63.1792 24.4079ZM64.0049 22.0804H65.4654L64.7326 19.9335L64.0049 22.0804Z" fill="black"/>
<path d="M70.6314 19.6174V22.812C70.6314 22.9668 70.7088 23.0391 70.8585 23.0391H74.2801L73.8259 24.4067H69.7179C69.109 24.4067 68.8045 24.1022 68.8045 23.4932V18.931C68.8045 18.3221 69.109 18.0176 69.7179 18.0176H74.2801L73.8259 19.3852H70.8585C70.7088 19.3852 70.6314 19.4626 70.6314 19.6174Z" fill="black"/>
<path d="M76.9276 22.581H76.0142C75.4052 22.581 75.1007 22.2765 75.1007 21.6675V18.0137H76.9276V20.9811C76.9276 21.136 77.0051 21.2082 77.1599 21.2082H78.5223C78.672 21.2082 78.7494 21.1308 78.7494 20.9811V18.0137H80.5763V21.6675C80.5763 22.2765 80.2719 22.581 79.6629 22.581H78.7494V24.4079H76.9225V22.581H76.9276Z" fill="black"/>
<path d="M18.8168 14.3945H17.9601V27.6217H18.8168V14.3945Z" fill="black"/>
</g>
<defs>
<clipPath id="clip0_411_111">
<rect width="80.0522" height="41.0963" fill="white" transform="translate(0.406067 0.636719)"/>
</clipPath>
</defs>
</svg>
