<svg width="157" height="67" viewBox="0 0 157 67" fill="none" xmlns="http://www.w3.org/2000/svg">
<g clip-path="url(#clip0_137_1518)">
<path d="M77.4751 32.5143V27.5488H79.7538C79.9919 27.5488 80.2299 27.5828 80.434 27.6849C80.638 27.7869 80.8081 27.8889 80.9781 28.059C81.1142 28.229 81.2502 28.3991 81.3182 28.5691C81.3863 28.7732 81.4543 28.9432 81.4543 29.1473C81.4543 29.4194 81.3863 29.6915 81.2502 29.9295C81.1142 30.1676 80.9101 30.3717 80.6721 30.5417C80.434 30.7118 80.1279 30.7798 79.8218 30.7798H78.3594V32.5143H77.4751ZM78.3254 30.0996H79.7198C79.8898 30.0996 80.0259 30.0656 80.1279 29.9635C80.2639 29.8955 80.332 29.7595 80.4 29.6234C80.468 29.4874 80.502 29.3174 80.502 29.1473C80.502 28.9773 80.468 28.8072 80.366 28.6712C80.2979 28.5351 80.1959 28.4331 80.0599 28.3311C79.9238 28.263 79.7878 28.229 79.6518 28.229H78.2913V30.0996H78.3254Z" fill="white"/>
<path d="M84.6513 32.548C84.2772 32.548 83.9031 32.48 83.597 32.3439C83.2909 32.2079 83.0188 32.0038 82.7808 31.7658C82.5427 31.5277 82.3726 31.2556 82.2366 30.9495C82.1005 30.6434 82.0665 30.3373 82.0665 30.0312C82.0665 29.6911 82.1346 29.385 82.2706 29.079C82.4066 28.7729 82.5767 28.5008 82.8148 28.2627C83.0528 28.0246 83.3249 27.8546 83.631 27.6845C83.9371 27.5485 84.2772 27.4805 84.6513 27.4805C85.0254 27.4805 85.3995 27.5485 85.7056 27.6845C86.0117 27.8206 86.2838 28.0246 86.5219 28.2627C86.7599 28.5008 86.93 28.7729 87.032 29.079C87.1681 29.385 87.2021 29.6911 87.2021 29.9972C87.2021 30.3373 87.134 30.6434 86.998 30.9495C86.862 31.2556 86.6919 31.5277 86.4538 31.7658C86.2158 32.0038 85.9437 32.1739 85.6376 32.3099C85.3655 32.48 85.0254 32.548 84.6513 32.548ZM82.9508 30.0312C82.9508 30.2693 82.9848 30.5074 83.0868 30.7114C83.1549 30.9155 83.2909 31.1196 83.4269 31.2896C83.563 31.4597 83.767 31.5957 83.9711 31.6977C84.1752 31.7998 84.4132 31.8338 84.6853 31.8338C84.9574 31.8338 85.1955 31.7657 85.3995 31.6637C85.6036 31.5617 85.8077 31.4257 85.9437 31.2556C86.0797 31.0856 86.1818 30.8815 86.2838 30.6774C86.3518 30.4734 86.3858 30.2353 86.3858 30.0312C86.3858 29.7932 86.3518 29.5551 86.2838 29.351C86.2158 29.147 86.0797 28.9429 85.9437 28.7729C85.8077 28.6028 85.6036 28.4668 85.3995 28.3647C85.1955 28.2627 84.9574 28.2287 84.6853 28.2287C84.4132 28.2287 84.1752 28.2967 83.9711 28.3987C83.767 28.5008 83.563 28.6368 83.4269 28.8069C83.2909 28.9769 83.1549 29.181 83.0868 29.385C82.9848 29.5891 82.9508 29.7932 82.9508 30.0312Z" fill="white"/>
<path d="M87.9843 29.9974C87.9843 29.6913 88.0523 29.3852 88.1543 29.1131C88.2563 28.807 88.4264 28.569 88.6645 28.2969C88.9025 28.0588 89.1746 27.8547 89.4807 27.7187C89.8208 27.5827 90.1609 27.5146 90.569 27.5146C91.0452 27.5146 91.4873 27.6167 91.8274 27.8207C92.1675 28.0248 92.4396 28.2969 92.6096 28.603L91.9294 29.0111C91.8274 28.807 91.6914 28.637 91.5553 28.535C91.3853 28.4329 91.2492 28.3309 91.0452 28.2969C90.8751 28.2629 90.7051 28.2289 90.501 28.2289C90.2289 28.2289 89.9568 28.2969 89.7528 28.3989C89.5487 28.5009 89.3447 28.637 89.2086 28.807C89.0726 28.9771 88.9705 29.1811 88.8685 29.3852C88.8005 29.5893 88.7665 29.8273 88.7665 30.0314C88.7665 30.2695 88.8005 30.5075 88.9025 30.7116C89.0046 30.9497 89.1066 31.1197 89.2766 31.2898C89.4467 31.4598 89.6167 31.5959 89.8208 31.6979C90.0248 31.7999 90.2629 31.8339 90.535 31.8339C90.7051 31.8339 90.8751 31.7999 91.0792 31.7659C91.2832 31.7319 91.4533 31.6299 91.5893 31.4938C91.7594 31.3578 91.8614 31.2218 91.9634 31.0177L92.6776 31.3918C92.5756 31.6299 92.4056 31.8679 92.1675 32.038C91.9294 32.208 91.6573 32.3441 91.3853 32.4461C91.0792 32.5482 90.8071 32.5821 90.535 32.5821C90.1609 32.5821 89.8208 32.5141 89.4807 32.3441C89.1406 32.174 88.9025 32.004 88.6645 31.7659C88.4264 31.5278 88.2563 31.2558 88.1203 30.9497C88.0183 30.6096 87.9843 30.3035 87.9843 29.9974Z" fill="white"/>
<path d="M93.2899 29.9974C93.2899 29.6913 93.3579 29.3852 93.4599 29.1131C93.5619 28.807 93.732 28.569 93.9701 28.2969C94.2081 28.0588 94.4802 27.8547 94.7863 27.7187C95.1264 27.5827 95.4665 27.5146 95.8746 27.5146C96.3508 27.5146 96.7929 27.6167 97.133 27.8207C97.4731 28.0248 97.7452 28.2969 97.9152 28.603L97.235 29.0111C97.133 28.807 96.997 28.637 96.8609 28.535C96.6909 28.4329 96.5548 28.3309 96.3508 28.2969C96.1807 28.2629 96.0107 28.2289 95.8066 28.2289C95.5345 28.2289 95.2624 28.2969 95.0584 28.3989C94.8543 28.5009 94.6843 28.637 94.5142 28.807C94.3782 28.9771 94.2762 29.1811 94.1741 29.3852C94.1061 29.5893 94.0721 29.8273 94.0721 30.0314C94.0721 30.2695 94.1061 30.5075 94.2081 30.7116C94.3102 30.9497 94.4122 31.1197 94.5822 31.2898C94.7523 31.4598 94.9224 31.5959 95.1264 31.6979C95.3305 31.7999 95.5685 31.8339 95.8406 31.8339C96.0107 31.8339 96.1807 31.7999 96.3848 31.7659C96.5889 31.6979 96.7589 31.6299 96.8949 31.4938C97.065 31.3578 97.167 31.2218 97.269 31.0177L97.9833 31.3918C97.8812 31.6299 97.7112 31.8679 97.4731 32.038C97.235 32.208 96.963 32.3441 96.6909 32.4461C96.3848 32.5482 96.1127 32.5821 95.8406 32.5821C95.4665 32.5821 95.1264 32.5141 94.7863 32.3441C94.4462 32.174 94.2081 32.004 93.9701 31.7659C93.732 31.5278 93.5619 31.2558 93.4259 30.9497C93.3579 30.6096 93.2899 30.3035 93.2899 29.9974Z" fill="white"/>
<path d="M99.0375 32.5143V27.5488H99.8878V31.426L102.779 27.5488H103.561V32.5483H102.711V28.7392L99.8538 32.5483H99.0375V32.5143Z" fill="white"/>
<path d="M105.057 32.5137V27.5482H105.908V31.4254L108.798 27.5482H109.581V32.5477H108.73V28.7386L105.874 32.5477H105.057V32.5137ZM107.302 27.2081C107.03 27.2081 106.792 27.1741 106.588 27.0721C106.384 27.0041 106.248 26.868 106.146 26.732C106.044 26.5959 106.01 26.4259 106.01 26.2559H106.622C106.622 26.3919 106.69 26.4939 106.792 26.596C106.894 26.698 107.064 26.766 107.336 26.766C107.574 26.766 107.744 26.732 107.88 26.63C108.016 26.5279 108.05 26.4259 108.05 26.2559H108.662C108.662 26.4259 108.628 26.5959 108.526 26.732C108.424 26.868 108.288 27.0041 108.084 27.0721C107.88 27.1401 107.574 27.2081 107.302 27.2081Z" fill="white"/>
<path d="M110.669 29.9974C110.669 29.6913 110.737 29.3852 110.839 29.1131C110.941 28.807 111.111 28.569 111.349 28.2969C111.587 28.0588 111.859 27.8547 112.165 27.7187C112.506 27.5827 112.846 27.5146 113.254 27.5146C113.73 27.5146 114.172 27.6167 114.512 27.8207C114.852 28.0248 115.124 28.2969 115.294 28.603L114.614 29.0111C114.512 28.807 114.376 28.637 114.24 28.535C114.07 28.4329 113.934 28.3309 113.73 28.2969C113.56 28.2629 113.39 28.2289 113.186 28.2289C112.914 28.2289 112.642 28.2969 112.438 28.3989C112.233 28.5009 112.029 28.637 111.893 28.807C111.757 28.9771 111.655 29.1811 111.553 29.3852C111.485 29.5893 111.451 29.8273 111.451 30.0314C111.451 30.2695 111.485 30.5075 111.587 30.7116C111.689 30.9497 111.791 31.1197 111.961 31.2898C112.131 31.4598 112.301 31.5959 112.506 31.6979C112.71 31.7999 112.948 31.8339 113.22 31.8339C113.39 31.8339 113.56 31.7999 113.764 31.7659C113.968 31.7319 114.138 31.6299 114.274 31.4938C114.444 31.3578 114.546 31.2218 114.648 31.0177L115.362 31.3918C115.26 31.6299 115.09 31.8679 114.852 32.038C114.614 32.208 114.342 32.3441 114.07 32.4461C113.764 32.5482 113.492 32.5821 113.22 32.5821C112.846 32.5821 112.506 32.5141 112.165 32.3441C111.825 32.174 111.587 32.004 111.349 31.7659C111.111 31.5278 110.941 31.2558 110.805 30.9497C110.737 30.6096 110.669 30.3035 110.669 29.9974Z" fill="white"/>
<path d="M116.417 32.5143V27.5488H117.267V29.6234H117.913L119.614 27.5488H120.6L118.627 29.9635L120.736 32.5483H119.682L117.913 30.3717H117.267V32.5483H116.417V32.5143Z" fill="white"/>
<path d="M123.219 27.5488H124.035L126.144 32.5483H125.259L124.749 31.1879H122.607L122.062 32.5483H121.144L123.219 27.5488ZM124.477 30.5757L123.627 28.3991L122.777 30.5757H124.477Z" fill="white"/>
<path d="M126.824 32.514L128.184 30.4734C127.844 30.3713 127.538 30.2013 127.368 29.9292C127.164 29.6571 127.062 29.351 127.062 29.0109C127.062 28.7388 127.13 28.4668 127.3 28.2287C127.436 27.9906 127.674 27.8206 127.912 27.6845C128.184 27.5485 128.49 27.4805 128.831 27.4805H130.769V32.48H129.919V30.5414H129.205C129.171 30.5414 129.137 30.5414 129.103 30.5414C129.069 30.5414 129.035 30.5414 129.001 30.5414L127.742 32.48H126.824V32.514ZM128.933 29.8952H129.953V28.2287H128.967C128.762 28.2287 128.592 28.2627 128.456 28.3307C128.286 28.3987 128.184 28.5008 128.082 28.6028C127.98 28.7388 127.946 28.8749 127.946 29.0449C127.946 29.215 127.98 29.385 128.082 29.4871C128.15 29.6231 128.286 29.7251 128.422 29.7932C128.558 29.8612 128.728 29.8952 128.933 29.8952Z" fill="white"/>
<path d="M77.5092 42.3764V37.377H78.3594V39.4516H79.0056L80.7061 37.377H81.6924L79.7198 39.7917L81.8284 42.3764H80.7741L79.0056 40.1998H78.3594V42.3764H77.5092Z" fill="white"/>
<path d="M82.7808 42.3764V37.377H83.631V41.2541L86.5219 37.377H87.3041V42.3764H86.4539V38.5673L83.597 42.3764H82.7808Z" fill="white"/>
<path d="M88.7665 42.3764V37.377H92.5416V38.0572H89.6167V39.4516H91.1812C91.7934 39.4516 92.2355 39.5876 92.5416 39.8257C92.8477 40.0977 92.9837 40.4378 92.9837 40.846C92.9837 41.1181 92.9157 41.3901 92.7797 41.5942C92.6436 41.8323 92.4736 42.0023 92.2015 42.1384C91.9294 42.2744 91.6233 42.3424 91.2492 42.3424H88.7665V42.3764ZM89.6167 41.6962H91.1472C91.3853 41.6962 91.5553 41.6622 91.7254 41.5602C91.8954 41.4582 91.9634 41.3901 92.0314 41.2541C92.0995 41.1181 92.1335 41.016 92.1335 40.88C92.1335 40.744 92.0995 40.6079 92.0655 40.5059C91.9974 40.4038 91.8954 40.3018 91.7594 40.2338C91.6233 40.1658 91.4193 40.1318 91.1472 40.1318H89.6507V41.6962H89.6167Z" fill="white"/>
<path d="M97.6771 41.6621V42.3423H93.97V37.3428H97.6091V38.023H94.8203V39.4514H97.235V40.0976H94.8203V41.6281H97.6771V41.6621Z" fill="white"/>
<path d="M98.7314 42.3764V37.377H101.01C101.248 37.377 101.486 37.411 101.69 37.513C101.894 37.615 102.064 37.7171 102.234 37.8871C102.371 38.0572 102.507 38.2272 102.575 38.3973C102.643 38.6013 102.711 38.7714 102.711 38.9754C102.711 39.2475 102.643 39.5196 102.507 39.7577C102.371 39.9957 102.166 40.1998 101.928 40.3698C101.69 40.5399 101.384 40.6079 101.078 40.6079H99.6157V42.3424H98.7314V42.3764ZM99.5817 39.9277H100.976C101.146 39.9277 101.282 39.8937 101.384 39.7917C101.52 39.7236 101.588 39.5876 101.656 39.4516C101.724 39.3155 101.758 39.1455 101.758 38.9754C101.758 38.8054 101.724 38.6353 101.622 38.4993C101.554 38.3632 101.452 38.2612 101.316 38.1592C101.18 38.0912 101.044 38.0572 100.908 38.0572H99.5477V39.9277H99.5817Z" fill="white"/>
<path d="M103.323 39.8255C103.323 39.5194 103.391 39.2133 103.493 38.9413C103.595 38.6352 103.765 38.3971 104.003 38.125C104.241 37.8529 104.513 37.6829 104.819 37.5468C105.159 37.4108 105.5 37.3428 105.908 37.3428C106.384 37.3428 106.826 37.4448 107.166 37.6489C107.506 37.8529 107.778 38.125 107.948 38.4311L107.268 38.8392C107.166 38.6352 107.03 38.4651 106.894 38.3631C106.724 38.261 106.588 38.159 106.384 38.125C106.214 38.091 106.044 38.057 105.84 38.057C105.568 38.057 105.295 38.125 105.091 38.227C104.887 38.3291 104.717 38.4651 104.547 38.6352C104.411 38.8052 104.309 39.0093 104.207 39.2133C104.139 39.4174 104.105 39.6555 104.105 39.8595C104.105 40.0976 104.139 40.3357 104.241 40.5397C104.343 40.7778 104.445 40.9479 104.615 41.1179C104.785 41.288 104.955 41.424 105.159 41.526C105.363 41.628 105.602 41.6621 105.874 41.6621C106.044 41.6621 106.214 41.6281 106.418 41.594C106.622 41.526 106.792 41.458 106.928 41.322C107.098 41.1859 107.2 41.0499 107.302 40.8458L108.016 41.2199C107.914 41.458 107.744 41.6961 107.506 41.8661C107.268 42.0362 106.996 42.1722 106.724 42.2742C106.418 42.3763 106.146 42.4103 105.874 42.4103C105.5 42.4103 105.159 42.3423 104.819 42.1722C104.513 42.0362 104.241 41.8321 104.003 41.594C103.765 41.356 103.595 41.0839 103.459 40.7778C103.391 40.4717 103.323 40.1316 103.323 39.8255Z" fill="white"/>
<path d="M109.071 42.3764V37.377H113.322V42.3764H112.472V38.0912H109.921V42.3764H109.071Z" fill="white"/>
<path d="M116.961 42.4103C116.587 42.4103 116.213 42.3423 115.907 42.2062C115.601 42.0702 115.328 41.8661 115.09 41.6281C114.852 41.39 114.682 41.1179 114.546 40.8118C114.41 40.5057 114.376 40.1996 114.376 39.8935C114.376 39.5534 114.444 39.2473 114.58 38.9413C114.716 38.6352 114.886 38.3631 115.124 38.125C115.362 37.8869 115.635 37.7169 115.941 37.5468C116.247 37.4108 116.587 37.3428 116.961 37.3428C117.335 37.3428 117.709 37.4108 118.015 37.5468C118.321 37.6829 118.593 37.8869 118.832 38.125C119.07 38.3631 119.24 38.6352 119.342 38.9413C119.478 39.2473 119.512 39.5534 119.512 39.8595C119.512 40.1996 119.444 40.5057 119.308 40.8118C119.172 41.1179 119.002 41.39 118.763 41.6281C118.525 41.8661 118.253 42.0362 117.947 42.1722C117.675 42.3423 117.335 42.4103 116.961 42.4103ZM115.26 39.8595C115.26 40.0976 115.294 40.3357 115.396 40.5397C115.464 40.7438 115.601 40.9479 115.737 41.1179C115.873 41.288 116.077 41.424 116.281 41.526C116.485 41.628 116.723 41.6621 116.995 41.6621C117.267 41.6621 117.505 41.594 117.709 41.492C117.913 41.39 118.083 41.2539 118.253 41.0839C118.423 40.9138 118.491 40.7098 118.593 40.5057C118.661 40.3017 118.695 40.0636 118.695 39.8595C118.695 39.6215 118.661 39.3834 118.593 39.1793C118.525 38.9753 118.389 38.7712 118.253 38.6012C118.117 38.4311 117.913 38.2951 117.709 38.193C117.505 38.091 117.267 38.057 116.995 38.057C116.723 38.057 116.485 38.125 116.281 38.227C116.077 38.3291 115.873 38.4651 115.737 38.6352C115.601 38.8052 115.464 39.0093 115.396 39.2133C115.294 39.4174 115.26 39.6555 115.26 39.8595Z" fill="white"/>
<path d="M120.634 42.3764V37.377H122.913C123.151 37.377 123.389 37.411 123.593 37.513C123.797 37.615 123.967 37.7171 124.137 37.8871C124.273 38.0572 124.409 38.2272 124.477 38.3973C124.545 38.6013 124.613 38.7714 124.613 38.9754C124.613 39.2475 124.545 39.5196 124.409 39.7577C124.273 39.9957 124.069 40.1998 123.831 40.3698C123.593 40.5399 123.287 40.6079 122.981 40.6079H121.518V42.3424H120.634V42.3764ZM121.484 39.9277H122.879C123.049 39.9277 123.185 39.8937 123.287 39.7917C123.423 39.7236 123.491 39.5876 123.559 39.4516C123.627 39.3155 123.661 39.1455 123.661 38.9754C123.661 38.8054 123.627 38.6353 123.525 38.4993C123.457 38.3632 123.355 38.2612 123.219 38.1592C123.083 38.0912 122.947 38.0572 122.811 38.0572H121.45V39.9277H121.484Z" fill="white"/>
<path d="M129.511 38.0913H127.708V42.3766H126.858V38.0913H125.055V37.4111H129.511V38.0913Z" fill="white"/>
<path d="M130.463 42.3764V37.377H131.313V41.2541L134.204 37.377H134.986V42.3764H134.136V38.5673L131.279 42.3764H130.463Z" fill="white"/>
<path d="M140.666 41.084C140.666 41.3561 140.598 41.5942 140.428 41.7643C140.292 41.9683 140.088 42.1043 139.816 42.2064C139.578 42.3084 139.272 42.3764 138.966 42.3764H136.381V37.377H139.17C139.408 37.377 139.646 37.445 139.816 37.547C139.986 37.683 140.156 37.8191 140.224 38.0231C140.326 38.2272 140.36 38.4313 140.36 38.6353C140.36 38.8734 140.292 39.1115 140.156 39.3155C140.02 39.5196 139.816 39.6896 139.578 39.7917C139.884 39.8597 140.122 40.0297 140.326 40.2678C140.564 40.5059 140.666 40.778 140.666 41.084ZM137.265 38.0572V39.5196H138.829C138.966 39.5196 139.102 39.4856 139.204 39.4176C139.306 39.3495 139.408 39.2815 139.476 39.1455C139.544 39.0434 139.578 38.9074 139.578 38.7714C139.578 38.6353 139.544 38.4993 139.476 38.3973C139.408 38.2952 139.34 38.1932 139.238 38.1252C139.136 38.0571 139 38.0231 138.863 38.0231H137.265V38.0572ZM139.782 40.948C139.782 40.812 139.748 40.6759 139.68 40.5739C139.612 40.4719 139.544 40.3698 139.408 40.3018C139.306 40.2338 139.17 40.1998 139.034 40.1998H137.265V41.7302H139C139.136 41.7302 139.272 41.6962 139.408 41.6282C139.51 41.5602 139.612 41.4582 139.68 41.3561C139.748 41.1861 139.782 41.0841 139.782 40.948Z" fill="white"/>
<path d="M146.142 37.377V42.3764H145.291V40.1658H142.571V42.3764H141.72V37.377H142.571V39.4516H145.291V37.377H146.142Z" fill="white"/>
<path d="M149.135 37.377H149.951L152.059 42.3764H151.175L150.665 41.016H148.522L147.978 42.3764H147.06L149.135 37.377ZM150.359 40.4379L149.509 38.2612L148.658 40.4379H150.359Z" fill="white"/>
<path d="M152.74 42.3763L154.1 40.3357C153.76 40.2336 153.454 40.0636 153.284 39.7915C153.08 39.5194 152.978 39.2133 152.978 38.8732C152.978 38.6011 153.046 38.3291 153.216 38.091C153.352 37.8529 153.59 37.6829 153.828 37.5468C154.1 37.4108 154.406 37.3428 154.746 37.3428H156.685V42.3423H155.835V40.4037H155.12C155.086 40.4037 155.052 40.4037 155.018 40.4037C154.984 40.4037 154.95 40.4037 154.916 40.4037L153.658 42.3423H152.74V42.3763ZM154.848 39.7235H155.869V38.057H154.882C154.678 38.057 154.508 38.091 154.372 38.159C154.202 38.227 154.1 38.3291 153.998 38.4311C153.896 38.5671 153.862 38.7032 153.862 38.8732C153.862 39.0433 153.896 39.2133 153.998 39.3154C154.066 39.4514 154.202 39.5534 154.338 39.6215C154.474 39.6895 154.644 39.7235 154.848 39.7235Z" fill="white"/>
<path d="M80.9782 52.2057V47.9204H79.1756L79.1416 48.8387C79.1076 49.5189 79.0396 50.0631 78.9716 50.5052C78.8695 50.9473 78.7675 51.2874 78.5974 51.5255C78.4274 51.7636 78.2233 51.9676 77.9853 52.0697C77.7472 52.1717 77.4411 52.2397 77.101 52.2397V51.5595C77.3051 51.5595 77.4411 51.5255 77.6112 51.4235C77.7472 51.3555 77.8832 51.1854 77.9853 50.9814C78.0873 50.7773 78.1553 50.4712 78.2233 50.0971C78.2914 49.723 78.3254 49.2128 78.3254 48.6346L78.3934 47.2402H81.8624V52.2397H80.9782V52.2057Z" fill="white"/>
<path d="M83.2908 52.2056V47.2061H84.1411V51.0832L87.0319 47.2061H87.8142V52.2056H86.9639V48.3964L84.1071 52.2056H83.2908Z" fill="white"/>
<path d="M89.2767 52.2056V47.2061H92.4736V47.8863H90.1269V52.1715H89.2767V52.2056Z" fill="white"/>
<path d="M95.0243 47.2061H95.8406L97.9492 52.2056H97.0649L96.5548 50.8451H94.4121L93.868 52.2056H92.9497L95.0243 47.2061ZM96.2827 50.267L95.4324 48.0903L94.5822 50.267H96.2827Z" fill="white"/>
<path d="M72.9518 27.3096H72.4417V52.171H72.9518V27.3096Z" fill="white"/>
<path d="M48.9065 56.3198L28.7725 51.6605L16.7669 54.0072L21.5964 41.7295H14.5563L6.12177 63.2239L28.7725 58.5645L51.5933 63.2239L48.9065 56.3198Z" fill="white"/>
<path d="M26.97 27.7179L32.4457 13.5697L28.8406 4.625L21.6305 23.2626C21.5964 23.2626 25.8817 23.7047 26.97 27.7179Z" fill="white"/>
<path d="M4.08122 31.4591L0.136047 24.623H18.5355C23.6711 24.623 26.2218 27.1738 26.2218 32.3093C26.2218 37.4449 23.6711 39.9956 18.5355 39.9956H10.8492V46.8317L4.01319 50.2667V33.1596H18.5355C19.1137 33.1596 19.3858 32.8875 19.3858 32.3093C19.3858 31.7312 19.1137 31.4591 18.5355 31.4591H4.08122Z" fill="white"/>
<path d="M36.4248 24.5547V34.3496L46.968 24.5547H55.8786L43.1929 37.0364L50.7431 50.1983H42.7167L38.0913 42.1719L29.8949 50.0963V24.5547H36.4248Z" fill="white"/>
<path d="M23.4329 13.502C17.1071 14.6583 11.5634 18.0593 7.61823 22.7867H11.7334C14.5903 20.0319 18.1274 17.9573 22.0725 16.903L23.4329 13.502Z" fill="white"/>
<path d="M49.2127 22.7869C45.5056 18.3316 40.4381 15.1006 34.6223 13.7402L33.5 16.5971C37.9553 17.5494 41.9345 19.726 45.0975 22.7869H49.2127Z" fill="white"/>
<path d="M37.1391 62.2041C34.4523 63.2584 31.5274 63.8366 28.5005 63.8366C25.5416 63.8366 22.6848 63.2924 20.066 62.3061H20.032L15.1345 63.3264C19.0797 65.5711 23.6031 66.8635 28.4665 66.8635C33.364 66.8635 37.9893 65.5371 41.9345 63.2244L37.1391 62.2041Z" fill="white"/>
<path d="M52.2056 39.9276C52.2056 42.3083 51.8655 44.587 51.2193 46.7637L53.2259 50.1307C54.5183 47.0017 55.2325 43.5327 55.2325 39.9276C55.2325 36.5266 54.6203 33.2956 53.464 30.3027L51.0833 32.6154C51.8315 34.9621 52.2056 37.4109 52.2056 39.9276Z" fill="white"/>
</g>
<defs>
<clipPath id="clip0_137_1518">
<rect width="156.787" height="67" fill="white"/>
</clipPath>
</defs>
</svg>
