<svg width="188" height="96" viewBox="0 0 188 96" fill="none" xmlns="http://www.w3.org/2000/svg">
<g clip-path="url(#clip0_139_211)">
<path d="M20.5973 40.5791L10.8926 57.3966H13.9909L22.2007 43.3398L20.5973 40.5791Z" fill="white"/>
<path d="M19.8258 39.2287L15.7269 32.1279L1.13965 57.3964H4.2982L10.121 47.4144L11.3748 48.1257L5.88954 57.3843H9.25304L19.8258 39.2287ZM12.7733 45.6422L11.4954 44.943L15.6666 37.9628L16.4743 39.2407L12.7733 45.6422Z" fill="white"/>
<path d="M23.0199 44.7617L15.666 57.3959H18.7643L22.8632 50.3676L23.7071 51.8142L20.4521 57.3959H23.6709L25.2622 54.5629L26.2026 55.9854L25.3707 57.408H30.3256L23.0199 44.7617Z" fill="white"/>
<path d="M30.3142 59.1678C30.1333 59.3486 29.9525 59.5294 29.7837 59.7103C29.3136 60.2045 28.8434 60.7109 28.3732 61.2052C28.3363 61.2445 28.3149 61.2959 28.313 61.3498V63.0135H27.3967V61.386C27.3951 61.3247 27.374 61.2656 27.3364 61.2172C26.7096 60.5541 26.0827 59.879 25.4558 59.216C25.4333 59.194 25.4131 59.1698 25.3955 59.1437H26.5046C26.5345 59.1428 26.5643 59.1489 26.5915 59.1614C26.6186 59.174 26.6426 59.1927 26.6613 59.216L27.8548 60.5541L27.9151 60.6144L28.4456 60.0358C28.6987 59.7585 28.9519 59.4812 29.193 59.2039C29.209 59.1813 29.231 59.1636 29.2566 59.1529C29.2822 59.1422 29.3103 59.139 29.3377 59.1437H30.3142V59.1678Z" fill="white"/>
<path d="M14.9672 60.1207L14.063 60.2774V59.8434H11.254V62.2786H14.0509V61.4347H12.5922V60.7717H14.943C14.943 60.7958 14.9551 60.8079 14.9551 60.832V62.2304C14.953 62.3113 14.945 62.3919 14.931 62.4715C14.8587 62.8332 14.6658 62.9779 14.2438 63.014C14.1437 63.0243 14.043 63.0283 13.9424 63.0261H11.3264C11.2058 63.0261 11.0853 63.014 10.9647 63.002C10.5789 62.9417 10.4102 62.7729 10.374 62.3992C10.3637 62.2991 10.3597 62.1984 10.3619 62.0978V60.0363C10.3599 59.9477 10.364 59.8591 10.374 59.7711C10.4343 59.3853 10.591 59.2286 10.9768 59.1804C11.0767 59.1663 11.1773 59.1583 11.2782 59.1562H14.0389C14.1935 59.1577 14.3473 59.178 14.497 59.2165C14.5966 59.2329 14.6886 59.28 14.7599 59.3514C14.8313 59.4228 14.8785 59.5148 14.8948 59.6144C14.931 59.7711 14.943 59.9399 14.9672 60.1207Z" fill="white"/>
<path d="M24.1171 60.5906V59.8552H21.6939V62.2904H24.1171V61.4586L24.744 61.5912C24.8404 61.6032 24.961 61.6032 24.9971 61.6635C25.0247 61.7532 25.0329 61.8477 25.0212 61.9408C25.0172 62.1385 25.0011 62.3358 24.973 62.5315C24.9612 62.6458 24.9104 62.7525 24.8291 62.8337C24.7479 62.9149 24.6412 62.9657 24.527 62.9776C24.3758 63.0062 24.2226 63.0223 24.0689 63.0258H21.718C21.6051 63.0237 21.4925 63.0157 21.3805 63.0017C20.9826 62.9414 20.8138 62.7606 20.7777 62.3627C20.7656 62.2422 20.7656 62.1216 20.7656 62.0011V60.0481C20.7677 59.9392 20.7757 59.8305 20.7897 59.7226C20.8621 59.3488 21.0188 59.2042 21.3925 59.1559C21.5045 59.1415 21.6172 59.1334 21.7301 59.1318H24.093C24.2475 59.1341 24.4012 59.1543 24.5511 59.1921C24.6524 59.2091 24.7456 59.2581 24.8172 59.3318C24.8888 59.4055 24.9349 59.5002 24.9489 59.602C24.9851 59.8552 24.9851 60.1204 25.0092 60.3856C25.0069 60.3989 25.0013 60.4114 24.9929 60.422C24.9844 60.4325 24.9735 60.4408 24.961 60.4459C24.6957 60.4941 24.4064 60.5423 24.1171 60.5906Z" fill="white"/>
<path d="M6.661 59.8193V60.6752H8.44523V61.3383H6.67306V62.2907H9.75928V63.0261H5.75684V59.1562H9.72311V59.8193H6.661Z" fill="white"/>
<path d="M15.1602 63.0379L15.6183 62.2302C16.1849 61.2296 16.7394 60.229 17.306 59.2404C17.3166 59.2117 17.3368 59.1876 17.3632 59.1722C17.3896 59.1568 17.4205 59.1511 17.4507 59.156H18.162C18.184 59.1544 18.206 59.1593 18.2252 59.17C18.2445 59.1807 18.2602 59.1968 18.2705 59.2163L20.4164 62.9535C20.4306 62.9807 20.4427 63.0089 20.4525 63.0379H19.5243C19.4941 63.0429 19.4632 63.0372 19.4367 63.0218C19.4103 63.0064 19.3901 62.9822 19.3796 62.9535C19.259 62.7245 19.1264 62.4954 19.0059 62.2543C18.9987 62.2325 18.9835 62.2142 18.9634 62.203C18.9433 62.1918 18.9197 62.1886 18.8974 62.194H16.5948C16.5699 62.1936 16.5454 62.2001 16.5241 62.2129C16.5028 62.2257 16.4855 62.2442 16.4742 62.2664C16.3537 62.5075 16.221 62.7365 16.1005 62.9656C16.0905 62.9887 16.0735 63.0082 16.0518 63.0212C16.0302 63.0341 16.0051 63.04 15.9799 63.0379C15.7027 63.0259 15.4374 63.0379 15.1602 63.0379ZM16.9082 61.4707H18.5839L17.7521 59.9155L16.9082 61.4707Z" fill="white"/>
<path d="M4.9492 62.3024V63.0378H1.13965V59.168H2.04382V62.3145H4.9492V62.3024Z" fill="white"/>
<path d="M76.752 40.6035V55.5283H72.4844V40.6035H76.752Z" fill="white"/>
<path d="M85.5882 43.7982H82.9239V55.5283H78.6562V40.6035H94.654C96.0765 40.6035 96.7878 41.3148 96.7878 42.7374V55.5283H92.5201V44.3287C92.5201 43.9791 92.3393 43.7982 91.9897 43.7982H89.8559V55.5283H85.5882V43.7982Z" fill="white"/>
<path d="M102.961 40.6035V52.3336H111.496L110.435 55.5283H98.7051V40.6035H102.961Z" fill="white"/>
<path d="M117.669 43.7982V46.7277H124.601V49.392H117.669V52.3215H126.204L125.143 55.5162H113.413V40.6035H126.204L125.143 43.7982H117.669Z" fill="white"/>
<path d="M130.231 55.5283C128.808 55.5283 128.097 54.817 128.097 53.3945V42.7374C128.097 41.3148 128.808 40.6035 130.231 40.6035H140.888L139.827 43.7982H132.895C132.545 43.7982 132.364 43.9791 132.364 44.3287V51.7911C132.364 52.1527 132.545 52.3215 132.895 52.3215H136.632V49.392H134.498V46.7277H140.9V55.5283H130.231Z" fill="white"/>
<path d="M59.3193 55.5286H55.1602L60.8142 40.5918H65.0819L70.7359 55.5286H66.5768L65.6123 52.8644H60.2838L59.3193 55.5286ZM61.2362 50.0916H64.6479L62.936 45.0765L61.2362 50.0916Z" fill="white"/>
<path d="M147.361 55.5286H143.202L148.856 40.5918H153.124L158.778 55.5286H154.619L153.654 52.8644H148.326L147.361 55.5286ZM149.29 50.0916H152.702L150.99 45.0765L149.29 50.0916Z" fill="white"/>
<path d="M164.77 44.3407V51.8031C164.77 52.1648 164.95 52.3336 165.3 52.3336H173.293L172.232 55.5283H162.636C161.213 55.5283 160.502 54.817 160.502 53.3945V42.7374C160.502 41.3148 161.213 40.6035 162.636 40.6035H173.293L172.232 43.7982H165.3C164.95 43.7982 164.77 43.9791 164.77 44.3407Z" fill="white"/>
<path d="M179.477 51.261H177.343C175.92 51.261 175.209 50.5497 175.209 49.1271V40.5918H179.477V47.5237C179.477 47.8854 179.657 48.0542 180.019 48.0542H183.202C183.551 48.0542 183.732 47.8734 183.732 47.5237V40.5918H188V49.1271C188 50.5497 187.289 51.261 185.866 51.261H183.732V55.5286H179.465V51.261H179.477Z" fill="white"/>
<path d="M43.7317 32.1406H41.7305V63.039H43.7317V32.1406Z" fill="white"/>
</g>
<defs>
<clipPath id="clip0_139_211">
<rect width="187" height="96" fill="white" transform="translate(0.724609)"/>
</clipPath>
</defs>
</svg>
