<svg width="98" height="42" viewBox="0 0 98 42" fill="none" xmlns="http://www.w3.org/2000/svg">
<g clip-path="url(#clip0_343_731)">
<path d="M48.4059 20.3153V17.2129H49.8296C49.9783 17.2129 50.1271 17.2341 50.2546 17.2979C50.3821 17.3616 50.4883 17.4254 50.5946 17.5316C50.6796 17.6379 50.7646 17.7441 50.8071 17.8504C50.8496 17.9779 50.8921 18.0841 50.8921 18.2116C50.8921 18.3816 50.8496 18.5516 50.7646 18.7003C50.6796 18.8491 50.5521 18.9766 50.4033 19.0828C50.2546 19.1891 50.0633 19.2316 49.8721 19.2316H48.9584V20.3153H48.4059ZM48.9371 18.8066H49.8083C49.9146 18.8066 49.9996 18.7853 50.0633 18.7216C50.1483 18.6791 50.1908 18.5941 50.2333 18.5091C50.2758 18.4241 50.2971 18.3179 50.2971 18.2116C50.2971 18.1054 50.2758 17.9991 50.2121 17.9141C50.1696 17.8291 50.1058 17.7654 50.0208 17.7016C49.9358 17.6591 49.8508 17.6379 49.7658 17.6379H48.9159V18.8066H48.9371Z" fill="#696969"/>
<path d="M52.8896 20.3371C52.6558 20.3371 52.4221 20.2945 52.2308 20.2095C52.0396 20.1246 51.8696 19.9971 51.7208 19.8483C51.5721 19.6996 51.4658 19.5296 51.3808 19.3383C51.2958 19.1471 51.2746 18.9558 51.2746 18.7646C51.2746 18.5521 51.3171 18.3609 51.4021 18.1696C51.4871 17.9784 51.5933 17.8084 51.7421 17.6596C51.8908 17.5109 52.0608 17.4046 52.2521 17.2984C52.4433 17.2134 52.6558 17.1709 52.8896 17.1709C53.1233 17.1709 53.357 17.2134 53.5483 17.2984C53.7395 17.3834 53.9095 17.5109 54.0583 17.6596C54.207 17.8084 54.3133 17.9784 54.377 18.1696C54.462 18.3609 54.4833 18.5521 54.4833 18.7434C54.4833 18.9558 54.4407 19.1471 54.3557 19.3383C54.2708 19.5296 54.1645 19.6996 54.0158 19.8483C53.867 19.9971 53.697 20.1033 53.5058 20.1883C53.3358 20.2946 53.1233 20.3371 52.8896 20.3371ZM51.8271 18.7646C51.8271 18.9133 51.8483 19.0621 51.9121 19.1896C51.9546 19.3171 52.0396 19.4446 52.1246 19.5508C52.2096 19.6571 52.3371 19.7421 52.4646 19.8058C52.5921 19.8696 52.7408 19.8908 52.9108 19.8908C53.0808 19.8908 53.2295 19.8483 53.357 19.7846C53.4845 19.7208 53.612 19.6358 53.697 19.5296C53.782 19.4233 53.8458 19.2958 53.9095 19.1683C53.952 19.0408 53.9733 18.8921 53.9733 18.7646C53.9733 18.6159 53.952 18.4671 53.9095 18.3396C53.867 18.2121 53.782 18.0846 53.697 17.9784C53.612 17.8721 53.4845 17.7871 53.357 17.7234C53.2295 17.6596 53.0808 17.6384 52.9108 17.6384C52.7408 17.6384 52.5921 17.6809 52.4646 17.7446C52.3371 17.8084 52.2096 17.8934 52.1246 17.9996C52.0396 18.1059 51.9546 18.2334 51.9121 18.3609C51.8483 18.4884 51.8271 18.6159 51.8271 18.7646Z" fill="#696969"/>
<path d="M54.972 18.7436C54.972 18.5523 55.0145 18.3611 55.0782 18.1911C55.142 17.9998 55.2482 17.8511 55.397 17.6811C55.5457 17.5324 55.7157 17.4049 55.9069 17.3199C56.1194 17.2349 56.3319 17.1924 56.5869 17.1924C56.8844 17.1924 57.1607 17.2561 57.3732 17.3836C57.5856 17.5111 57.7556 17.6811 57.8619 17.8724L57.4369 18.1273C57.3732 17.9998 57.2882 17.8936 57.2032 17.8299C57.0969 17.7661 57.0119 17.7024 56.8844 17.6811C56.7782 17.6599 56.6719 17.6386 56.5444 17.6386C56.3744 17.6386 56.2044 17.6811 56.077 17.7449C55.9495 17.8086 55.822 17.8936 55.737 17.9999C55.652 18.1061 55.5882 18.2336 55.5245 18.3611C55.482 18.4886 55.4607 18.6373 55.4607 18.7648C55.4607 18.9136 55.482 19.0623 55.5457 19.1898C55.6095 19.3386 55.6732 19.4448 55.7795 19.5511C55.8857 19.6573 55.9919 19.7423 56.1194 19.806C56.2469 19.8698 56.3957 19.891 56.5657 19.891C56.6719 19.891 56.7782 19.8698 56.9057 19.8485C57.0332 19.8273 57.1394 19.7635 57.2244 19.6785C57.3307 19.5935 57.3944 19.5086 57.4582 19.3811L57.9044 19.6148C57.8406 19.7635 57.7344 19.9123 57.5856 20.0185C57.4369 20.1248 57.2669 20.2098 57.0969 20.2735C56.9057 20.3373 56.7357 20.3585 56.5657 20.3585C56.3319 20.3585 56.1194 20.316 55.9069 20.2098C55.6945 20.1035 55.5457 19.9973 55.397 19.8485C55.2482 19.6998 55.142 19.5298 55.057 19.3386C54.9932 19.1261 54.972 18.9348 54.972 18.7436Z" fill="#696969"/>
<path d="M58.2869 18.7436C58.2869 18.5523 58.3294 18.3611 58.3931 18.1911C58.4569 17.9998 58.5631 17.8511 58.7119 17.6811C58.8606 17.5324 59.0306 17.4049 59.2218 17.3199C59.4343 17.2349 59.6468 17.1924 59.9018 17.1924C60.1993 17.1924 60.4755 17.2561 60.688 17.3836C60.9005 17.5111 61.0705 17.6811 61.1768 17.8724L60.7518 18.1273C60.688 17.9998 60.603 17.8936 60.518 17.8299C60.4118 17.7661 60.3268 17.7024 60.1993 17.6811C60.0931 17.6599 59.9868 17.6386 59.8593 17.6386C59.6893 17.6386 59.5193 17.6811 59.3918 17.7449C59.2643 17.8086 59.1581 17.8936 59.0518 17.9999C58.9669 18.1061 58.9031 18.2336 58.8394 18.3611C58.7969 18.4886 58.7756 18.6373 58.7756 18.7648C58.7756 18.9136 58.7969 19.0623 58.8606 19.1898C58.9243 19.3386 58.9881 19.4448 59.0943 19.5511C59.2006 19.6573 59.3068 19.7423 59.4343 19.806C59.5618 19.8698 59.7106 19.891 59.8806 19.891C59.9868 19.891 60.0931 19.8698 60.2206 19.8485C60.3481 19.806 60.4543 19.7635 60.5393 19.6785C60.6455 19.5935 60.7093 19.5086 60.773 19.3811L61.2193 19.6148C61.1555 19.7635 61.0493 19.9123 60.9005 20.0185C60.7518 20.1248 60.5818 20.2098 60.4118 20.2735C60.2206 20.3373 60.0506 20.3585 59.8806 20.3585C59.6468 20.3585 59.4343 20.316 59.2218 20.2098C59.0093 20.1035 58.8606 19.9973 58.7119 19.8485C58.5631 19.6998 58.4569 19.5298 58.3719 19.3386C58.3294 19.1261 58.2869 18.9348 58.2869 18.7436Z" fill="#696969"/>
<path d="M61.878 20.3153V17.2129H62.4092V19.6353L64.2154 17.2129H64.7041V20.3365H64.1729V17.9566L62.388 20.3365H61.878V20.3153Z" fill="#696969"/>
<path d="M65.6392 20.3151V17.2127H66.1704V19.6352L67.9766 17.2127H68.4653V20.3364H67.9341V17.9565L66.1491 20.3364H65.6392V20.3151ZM67.0416 17.0003C66.8716 17.0003 66.7229 16.979 66.5954 16.9152C66.4679 16.8728 66.3829 16.7878 66.3191 16.7028C66.2554 16.6178 66.2341 16.5115 66.2341 16.4053H66.6166C66.6166 16.4903 66.6591 16.554 66.7229 16.6178C66.7866 16.6815 66.8929 16.724 67.0629 16.724C67.2116 16.724 67.3179 16.7028 67.4029 16.639C67.4878 16.5753 67.5091 16.5115 67.5091 16.4053H67.8916C67.8916 16.5115 67.8703 16.6178 67.8066 16.7028C67.7428 16.7878 67.6578 16.8728 67.5303 16.9152C67.4028 16.9577 67.2116 17.0003 67.0416 17.0003Z" fill="#696969"/>
<path d="M69.1453 18.7436C69.1453 18.5523 69.1878 18.3611 69.2515 18.1911C69.3153 17.9998 69.4215 17.8511 69.5703 17.6811C69.719 17.5324 69.889 17.4049 70.0802 17.3199C70.2927 17.2349 70.5052 17.1924 70.7602 17.1924C71.0577 17.1924 71.3339 17.2561 71.5464 17.3836C71.7589 17.5111 71.9289 17.6811 72.0352 17.8724L71.6102 18.1273C71.5464 17.9998 71.4614 17.8936 71.3764 17.8299C71.2702 17.7661 71.1852 17.7024 71.0577 17.6811C70.9515 17.6599 70.8452 17.6386 70.7177 17.6386C70.5477 17.6386 70.3777 17.6811 70.2502 17.7449C70.1227 17.8086 69.9952 17.8936 69.9102 17.9999C69.8252 18.1061 69.7615 18.2336 69.6977 18.3611C69.6552 18.4886 69.634 18.6373 69.634 18.7648C69.634 18.9136 69.6552 19.0623 69.719 19.1898C69.7827 19.3386 69.8465 19.4448 69.9527 19.5511C70.059 19.6573 70.1652 19.7423 70.2927 19.806C70.4202 19.8698 70.569 19.891 70.739 19.891C70.8452 19.891 70.9515 19.8698 71.0789 19.8485C71.2064 19.8273 71.3127 19.7635 71.3977 19.6785C71.5039 19.5935 71.5677 19.5086 71.6314 19.3811L72.0777 19.6148C72.0139 19.7635 71.9077 19.9123 71.7589 20.0185C71.6102 20.1248 71.4402 20.2098 71.2702 20.2735C71.079 20.3373 70.909 20.3585 70.739 20.3585C70.5052 20.3585 70.2927 20.316 70.0802 20.2098C69.8677 20.1035 69.719 19.9973 69.5703 19.8485C69.4215 19.6998 69.3153 19.5298 69.2303 19.3386C69.1878 19.1261 69.1453 18.9348 69.1453 18.7436Z" fill="#696969"/>
<path d="M72.7364 20.3153V17.2129H73.2676V18.5091H73.6714L74.7338 17.2129H75.3501L74.1176 18.7216L75.4351 20.3365H74.7763L73.6714 18.9766H73.2676V20.3365H72.7364V20.3153Z" fill="#696969"/>
<path d="M76.9863 17.2129H77.4963L78.8137 20.3365H78.2612L77.9425 19.4866H76.6038L76.2638 20.3365H75.6901L76.9863 17.2129ZM77.7725 19.1041L77.2413 17.7441L76.71 19.1041H77.7725Z" fill="#696969"/>
<path d="M79.2387 20.3158L80.0887 19.0408C79.8762 18.9771 79.6849 18.8708 79.5787 18.7009C79.4512 18.5309 79.3874 18.3396 79.3874 18.1271C79.3874 17.9571 79.4299 17.7871 79.5362 17.6384C79.6212 17.4896 79.7699 17.3834 79.9187 17.2984C80.0887 17.2134 80.2799 17.1709 80.4924 17.1709H81.7036V20.2946H81.1724V19.0833H80.7262C80.7049 19.0833 80.6837 19.0833 80.6624 19.0833C80.6412 19.0833 80.6199 19.0833 80.5987 19.0833L79.8124 20.2946H79.2387V20.3158ZM80.5562 18.6796H81.1936V17.6384H80.5774C80.4499 17.6384 80.3437 17.6596 80.2587 17.7021C80.1524 17.7446 80.0887 17.8084 80.0249 17.8721C79.9612 17.9571 79.9399 18.0421 79.9399 18.1484C79.9399 18.2546 79.9612 18.3609 80.0249 18.4246C80.0674 18.5096 80.1524 18.5734 80.2374 18.6158C80.3224 18.6583 80.4287 18.6796 80.5562 18.6796Z" fill="#696969"/>
<path d="M48.4272 26.4772V23.3535H48.9584V24.6497H49.3621L50.4246 23.3535H51.0408L49.8084 24.8622L51.1258 26.4772H50.4671L49.3621 25.1172H48.9584V26.4772H48.4272Z" fill="#696969"/>
<path d="M51.7209 26.4772V23.3535H52.2521V25.7759L54.0583 23.3535H54.547V26.4772H54.0158V24.0972L52.2309 26.4772H51.7209Z" fill="#696969"/>
<path d="M55.4607 26.4772V23.3535H57.8194V23.7785H55.9919V24.6497H56.9694C57.3519 24.6497 57.6281 24.7347 57.8194 24.8835C58.0106 25.0535 58.0956 25.2659 58.0956 25.5209C58.0956 25.6909 58.0531 25.8609 57.9681 25.9884C57.8831 26.1372 57.7769 26.2434 57.6069 26.3284C57.4369 26.4134 57.2456 26.4559 57.0119 26.4559H55.4607V26.4772ZM55.9919 26.0522H56.9481C57.0969 26.0522 57.2031 26.0309 57.3094 25.9672C57.4156 25.9034 57.4581 25.8609 57.5006 25.7759C57.5431 25.6909 57.5644 25.6272 57.5644 25.5422C57.5644 25.4572 57.5431 25.3722 57.5219 25.3084C57.4794 25.2447 57.4156 25.1809 57.3306 25.1385C57.2456 25.096 57.1181 25.0747 56.9481 25.0747H56.0132V26.0522H55.9919Z" fill="#696969"/>
<path d="M61.028 26.0307V26.4557H58.7118V23.332H60.9855V23.757H59.243V24.6495H60.7517V25.0532H59.243V26.0095H61.028V26.0307Z" fill="#696969"/>
<path d="M61.6867 26.4772V23.3535H63.1104C63.2592 23.3535 63.4079 23.3748 63.5354 23.4385C63.6629 23.5023 63.7691 23.566 63.8754 23.6723C63.9604 23.7785 64.0454 23.8847 64.0879 23.991C64.1304 24.1185 64.1729 24.2247 64.1729 24.3522C64.1729 24.5222 64.1304 24.6922 64.0454 24.841C63.9604 24.9897 63.8329 25.1172 63.6841 25.2235C63.5354 25.3297 63.3442 25.3722 63.1529 25.3722H62.2392V26.4559H61.6867V26.4772ZM62.2179 24.9472H63.0892C63.1954 24.9472 63.2804 24.926 63.3442 24.8622C63.4291 24.8197 63.4717 24.7347 63.5142 24.6497C63.5567 24.5647 63.5779 24.4585 63.5779 24.3522C63.5779 24.246 63.5566 24.1397 63.4929 24.0547C63.4504 23.9697 63.3867 23.906 63.3017 23.8422C63.2167 23.7997 63.1317 23.7785 63.0467 23.7785H62.1967V24.9472H62.2179Z" fill="#696969"/>
<path d="M64.5555 24.8832C64.5555 24.692 64.598 24.5007 64.6617 24.3308C64.7255 24.1395 64.8317 23.9908 64.9805 23.8208C65.1292 23.6508 65.2992 23.5445 65.4905 23.4595C65.7029 23.3745 65.9154 23.332 66.1704 23.332C66.4679 23.332 66.7442 23.3958 66.9567 23.5233C67.1691 23.6508 67.3392 23.8208 67.4454 24.012L67.0204 24.267C66.9567 24.1395 66.8717 24.0333 66.7867 23.9695C66.6804 23.9058 66.5954 23.842 66.4679 23.8208C66.3617 23.7995 66.2554 23.7783 66.1279 23.7783C65.9579 23.7783 65.7879 23.8208 65.6604 23.8845C65.533 23.9483 65.4267 24.0333 65.3205 24.1395C65.2355 24.2457 65.1717 24.3732 65.108 24.5007C65.0655 24.6282 65.0442 24.777 65.0442 24.9045C65.0442 25.0532 65.0655 25.202 65.1292 25.3295C65.193 25.4782 65.2567 25.5845 65.363 25.6907C65.4692 25.797 65.5755 25.8819 65.7029 25.9457C65.8304 26.0094 65.9792 26.0307 66.1492 26.0307C66.2554 26.0307 66.3617 26.0094 66.4892 25.9882C66.6167 25.9457 66.7229 25.9032 66.8079 25.8182C66.9142 25.7332 66.9779 25.6482 67.0417 25.5207L67.4879 25.7545C67.4241 25.9032 67.3179 26.0519 67.1691 26.1582C67.0204 26.2644 66.8504 26.3494 66.6804 26.4132C66.4892 26.4769 66.3192 26.4982 66.1492 26.4982C65.9154 26.4982 65.7029 26.4557 65.4905 26.3494C65.2992 26.2644 65.1292 26.1369 64.9805 25.9882C64.8317 25.8395 64.7255 25.6695 64.6405 25.4782C64.598 25.287 64.5555 25.0745 64.5555 24.8832Z" fill="#696969"/>
<path d="M68.1465 26.4772V23.3535H70.8027V26.4772H70.2715V23.7997H68.6778V26.4772H68.1465Z" fill="#696969"/>
<path d="M73.0764 26.4982C72.8426 26.4982 72.6089 26.4557 72.4176 26.3707C72.2264 26.2857 72.0564 26.1582 71.9077 26.0095C71.7589 25.8607 71.6527 25.6907 71.5677 25.4995C71.4827 25.3082 71.4614 25.117 71.4614 24.9257C71.4614 24.7132 71.5039 24.522 71.5889 24.3308C71.6739 24.1395 71.7802 23.9695 71.9289 23.8208C72.0777 23.672 72.2477 23.5658 72.4389 23.4595C72.6301 23.3745 72.8426 23.332 73.0764 23.332C73.3101 23.332 73.5439 23.3745 73.7351 23.4595C73.9264 23.5445 74.0964 23.672 74.2451 23.8208C74.3938 23.9695 74.5001 24.1395 74.5638 24.3308C74.6488 24.522 74.6701 24.7132 74.6701 24.9045C74.6701 25.117 74.6276 25.3082 74.5426 25.4995C74.4576 25.6907 74.3513 25.8607 74.2026 26.0095C74.0538 26.1582 73.8838 26.2644 73.6926 26.3494C73.5226 26.4557 73.3101 26.4982 73.0764 26.4982ZM72.0139 24.9045C72.0139 25.0532 72.0352 25.202 72.0989 25.3295C72.1414 25.457 72.2264 25.5845 72.3114 25.6907C72.3964 25.797 72.5239 25.8819 72.6514 25.9457C72.7789 26.0094 72.9276 26.0307 73.0976 26.0307C73.2676 26.0307 73.4164 25.9882 73.5439 25.9245C73.6714 25.8607 73.7776 25.7757 73.8839 25.6695C73.9901 25.5632 74.0326 25.4357 74.0963 25.3082C74.1388 25.1807 74.1601 25.032 74.1601 24.9045C74.1601 24.7557 74.1388 24.607 74.0963 24.4795C74.0538 24.352 73.9689 24.2245 73.8839 24.1183C73.7989 24.012 73.6714 23.927 73.5439 23.8633C73.4164 23.7995 73.2676 23.7783 73.0976 23.7783C72.9276 23.7783 72.7789 23.8208 72.6514 23.8845C72.5239 23.9483 72.3964 24.0333 72.3114 24.1395C72.2264 24.2457 72.1414 24.3732 72.0989 24.5007C72.0352 24.6282 72.0139 24.777 72.0139 24.9045Z" fill="#696969"/>
<path d="M75.3713 26.4772V23.3535H76.795C76.9437 23.3535 77.0925 23.3748 77.22 23.4385C77.3475 23.5023 77.4537 23.566 77.56 23.6723C77.645 23.7785 77.7299 23.8847 77.7724 23.991C77.8149 24.1185 77.8575 24.2247 77.8575 24.3522C77.8575 24.5222 77.8149 24.6922 77.7299 24.841C77.6449 24.9897 77.5175 25.1172 77.3687 25.2235C77.22 25.3297 77.0287 25.3722 76.8375 25.3722H75.9238V26.4559H75.3713V26.4772ZM75.9025 24.9472H76.7737C76.88 24.9472 76.965 24.926 77.0287 24.8622C77.1137 24.8197 77.1562 24.7347 77.1987 24.6497C77.2412 24.5647 77.2625 24.4585 77.2625 24.3522C77.2625 24.246 77.2412 24.1397 77.1775 24.0547C77.135 23.9697 77.0712 23.906 76.9862 23.8422C76.9012 23.7997 76.8162 23.7785 76.7312 23.7785H75.8813V24.9472H75.9025Z" fill="#696969"/>
<path d="M80.9174 23.8H79.7912V26.4774H79.2599V23.8H78.1337V23.375H80.9174V23.8Z" fill="#696969"/>
<path d="M81.5124 26.4772V23.3535H82.0436V25.7759L83.8498 23.3535H84.3386V26.4772H83.8073V24.0972L82.0224 26.4772H81.5124Z" fill="#696969"/>
<path d="M87.8872 25.6697C87.8872 25.8397 87.8447 25.9884 87.7385 26.0947C87.6535 26.2222 87.5259 26.3072 87.356 26.3709C87.2072 26.4347 87.016 26.4772 86.8247 26.4772H85.2098V23.3535H86.9522C87.101 23.3535 87.2497 23.396 87.356 23.4598C87.4622 23.5448 87.5685 23.6297 87.6109 23.7572C87.6747 23.8847 87.696 24.0122 87.696 24.1397C87.696 24.2885 87.6534 24.4372 87.5684 24.5647C87.4835 24.6922 87.356 24.7985 87.2072 24.8622C87.3985 24.9047 87.5472 25.011 87.6747 25.1597C87.8234 25.3085 87.8872 25.4784 87.8872 25.6697ZM85.7623 23.7785V24.6922H86.7397C86.8247 24.6922 86.9097 24.671 86.9735 24.6285C87.0372 24.586 87.101 24.5435 87.1435 24.4585C87.186 24.3947 87.2072 24.3097 87.2072 24.2247C87.2072 24.1397 87.186 24.0547 87.1435 23.991C87.101 23.9272 87.0585 23.8635 86.9947 23.821C86.931 23.7785 86.846 23.7572 86.761 23.7572H85.7623V23.7785ZM87.3347 25.5847C87.3347 25.4997 87.3135 25.4147 87.271 25.3509C87.2285 25.2872 87.186 25.2235 87.101 25.181C87.0372 25.1385 86.9522 25.1172 86.8672 25.1172H85.7623V26.0734H86.846C86.931 26.0734 87.016 26.0522 87.101 26.0097C87.1647 25.9672 87.2285 25.9034 87.271 25.8397C87.3135 25.7334 87.3347 25.6697 87.3347 25.5847Z" fill="#696969"/>
<path d="M91.3083 23.3535V26.4772H90.7771V25.0959H89.0771V26.4772H88.5459V23.3535H89.0771V24.6497H90.7771V23.3535H91.3083Z" fill="#696969"/>
<path d="M93.1783 23.3535H93.6883L95.0057 26.4772H94.4532L94.1345 25.6272H92.7958L92.4558 26.4772H91.8821L93.1783 23.3535ZM93.9433 25.266L93.412 23.906L92.8808 25.266H93.9433Z" fill="#696969"/>
<path d="M95.4307 26.4769L96.2806 25.202C96.0681 25.1382 95.8769 25.032 95.7707 24.862C95.6432 24.692 95.5794 24.5007 95.5794 24.2883C95.5794 24.1183 95.6219 23.9483 95.7282 23.7995C95.8132 23.6508 95.9619 23.5445 96.1106 23.4595C96.2806 23.3745 96.4719 23.332 96.6844 23.332H97.8956V26.4557H97.3644V25.2445H96.9181C96.8969 25.2445 96.8756 25.2445 96.8544 25.2445C96.8331 25.2445 96.8119 25.2445 96.7906 25.2445L96.0044 26.4557H95.4307V26.4769ZM96.7481 24.8195H97.3856V23.7783H96.7694C96.6419 23.7783 96.5356 23.7995 96.4506 23.842C96.3444 23.8845 96.2806 23.9483 96.2169 24.012C96.1531 24.097 96.1319 24.182 96.1319 24.2883C96.1319 24.3945 96.1531 24.5007 96.2169 24.5645C96.2594 24.6495 96.3444 24.7132 96.4294 24.7557C96.5144 24.7982 96.6206 24.8195 96.7481 24.8195Z" fill="#696969"/>
<path d="M50.5946 32.619V29.9416H49.4684L49.4471 30.5153C49.4259 30.9403 49.3834 31.2803 49.3409 31.5565C49.2771 31.8328 49.2134 32.0453 49.1071 32.194C49.0009 32.3428 48.8734 32.4702 48.7247 32.534C48.5759 32.5977 48.3847 32.6402 48.1722 32.6402V32.2153C48.2997 32.2153 48.3847 32.194 48.4909 32.1303C48.5759 32.0878 48.6609 31.9815 48.7247 31.854C48.7884 31.7265 48.8309 31.5353 48.8734 31.3015C48.9159 31.0678 48.9372 30.7491 48.9372 30.3878L48.9797 29.5166H51.1471V32.6402H50.5946V32.619Z" fill="#696969"/>
<path d="M52.0396 32.6188V29.4951H52.5708V31.9175L54.377 29.4951H54.8657V32.6188H54.3345V30.2388L52.5495 32.6188H52.0396Z" fill="#696969"/>
<path d="M55.7795 32.6188V29.4951H57.7769V29.9201H56.3107V32.5975H55.7795V32.6188Z" fill="#696969"/>
<path d="M59.3706 29.4951H59.8805L61.198 32.6188H60.6455L60.3268 31.7688H58.9881L58.6481 32.6188H58.0743L59.3706 29.4951ZM60.1568 31.4076L59.6255 30.0476L59.0943 31.4076H60.1568Z" fill="#696969"/>
<path d="M45.5798 17.0635H45.2611V32.5967H45.5798V17.0635Z" fill="#696969"/>
<path d="M30.5565 35.1882L17.9769 32.2771L10.4759 33.7433L13.4933 26.0723H9.09466L3.82483 39.5018L17.9769 36.5907L32.2352 39.5018L30.5565 35.1882Z" fill="#696969"/>
<path d="M16.8507 17.3179L20.2719 8.47823L18.0195 2.88965L13.5146 14.5343C13.4933 14.5343 16.1708 14.8105 16.8507 17.3179Z" fill="#696969"/>
<path d="M2.54988 19.6559L0.0849609 15.3848H11.5808C14.7895 15.3848 16.3832 16.9785 16.3832 20.1871C16.3832 23.3958 14.7895 24.9895 11.5808 24.9895H6.7785V29.2606L2.50738 31.4067V20.7183H11.5808C11.9421 20.7183 12.1121 20.5483 12.1121 20.1871C12.1121 19.8259 11.9421 19.6559 11.5808 19.6559H2.54988Z" fill="#696969"/>
<path d="M22.758 15.3418V21.4616L29.3453 15.3418H34.9126L26.9866 23.1403L31.704 31.3638H26.6891L23.7992 26.3489L18.6782 31.3V15.3418H22.758Z" fill="#696969"/>
<path d="M14.6407 8.43652C10.6883 9.159 7.22469 11.2839 4.75977 14.2376H7.33093C9.11587 12.5164 11.3258 11.2202 13.7907 10.5615L14.6407 8.43652Z" fill="#696969"/>
<path d="M30.7478 14.2373C28.4316 11.4536 25.2655 9.43493 21.6318 8.58496L20.9306 10.3699C23.7143 10.9649 26.2004 12.3248 28.1766 14.2373H30.7478Z" fill="#696969"/>
<path d="M23.2042 38.8652C21.5256 39.524 19.6981 39.8852 17.8069 39.8852C15.9582 39.8852 14.1733 39.5452 12.5371 38.929H12.5158L9.45593 39.5665C11.9209 40.9689 14.747 41.7764 17.7857 41.7764C20.8456 41.7764 23.7355 40.9477 26.2004 39.5027L23.2042 38.8652Z" fill="#696969"/>
<path d="M32.6177 24.9462C32.6177 26.4336 32.4052 27.8573 32.0014 29.2173L33.2551 31.321C34.0626 29.366 34.5089 27.1986 34.5089 24.9462C34.5089 22.8213 34.1264 20.8026 33.4039 18.9326L31.9164 20.3776C32.3839 21.8438 32.6177 23.3737 32.6177 24.9462Z" fill="#696969"/>
</g>
<defs>
<clipPath id="clip0_343_731">
<rect width="97.9594" height="41.8612" fill="white"/>
</clipPath>
</defs>
</svg>
