<svg width="171" height="181" viewBox="0 0 171 181" fill="none" xmlns="http://www.w3.org/2000/svg">
<path d="M149.532 149.371L88.034 135.139L51.3637 142.307L66.1149 104.805H44.6114L18.8486 170.459L88.034 156.227L157.739 170.459L149.532 149.371Z" fill="#DCDCDC"/>
<path d="M82.5298 62.0046L99.2549 18.7898L88.2433 -8.53125L66.2203 48.3961C66.1165 48.3961 79.2056 49.7466 82.5298 62.0046Z" fill="#DCDCDC"/>
<path d="M12.6167 73.4315L0.566406 52.5513H56.7665C72.4527 52.5513 80.2438 60.3424 80.2438 76.0286C80.2438 91.7147 72.4527 99.5059 56.7665 99.5059H33.2892V120.386L12.4089 130.878V78.6256H56.7665C58.5325 78.6256 59.3636 77.7946 59.3636 76.0286C59.3636 74.2626 58.5325 73.4315 56.7665 73.4315H12.6167Z" fill="#DCDCDC"/>
<path d="M111.406 52.3433V82.2613L143.61 52.3433H170.827L132.079 90.468L155.141 130.67H130.624L116.496 106.154L91.4609 130.359V52.3433H111.406Z" fill="#DCDCDC"/>
<path d="M71.726 18.5835C52.404 22.1155 35.4712 32.5037 23.4209 46.9433H35.9906C44.7167 38.5288 55.5204 32.192 67.5707 28.9717L71.726 18.5835Z" fill="#DCDCDC"/>
<path d="M150.469 46.9422C139.146 33.3336 123.667 23.4648 105.904 19.3096L102.476 28.0356C116.084 30.9443 128.238 37.5928 137.899 46.9422H150.469Z" fill="#DCDCDC"/>
<path d="M113.591 167.341C105.384 170.562 96.45 172.328 87.2045 172.328C78.1668 172.328 69.4407 170.666 61.4418 167.653H61.3379L46.3789 170.769C58.4292 177.626 72.2455 181.573 87.1007 181.573C102.06 181.573 116.188 177.522 128.238 170.458L113.591 167.341Z" fill="#DCDCDC"/>
<path d="M159.608 99.2981C159.608 106.57 158.569 113.53 156.595 120.178L162.724 130.463C166.672 120.906 168.853 110.31 168.853 99.2981C168.853 88.9099 166.983 79.041 163.451 69.8994L156.18 76.9634C158.465 84.1313 159.608 91.6108 159.608 99.2981Z" fill="#DCDCDC"/>
</svg>
