<svg width="14" height="25" viewBox="0 0 14 25" fill="none" xmlns="http://www.w3.org/2000/svg">
<path d="M4.75 17C4.75 15.5417 4.89062 14.3854 5.17188 13.5312C5.46354 12.6667 5.97917 11.8438 6.71875 11.0625C7.5 10.1979 8.02083 9.48958 8.28125 8.9375C8.54167 8.38542 8.67188 7.82812 8.67188 7.26562C8.67188 5.52604 8.10938 4.65625 6.98438 4.65625C6.48438 4.65625 6.06771 4.89583 5.73438 5.375C5.40104 5.85417 5.22396 6.5 5.20312 7.3125H0.78125C0.802083 5.29167 1.36458 3.72396 2.46875 2.60938C3.58333 1.49479 5.08854 0.9375 6.98438 0.9375C8.92188 0.9375 10.4271 1.47917 11.5 2.5625C12.5729 3.63542 13.1094 5.14062 13.1094 7.07812C13.1094 8.68229 12.4479 10.2552 11.125 11.7969L9.82812 13.2656C9.40104 13.776 9.09896 14.3073 8.92188 14.8594C8.74479 15.401 8.64583 16.1146 8.625 17H4.75ZM4.34375 21.7812C4.34375 21.0729 4.56771 20.4948 5.01562 20.0469C5.47396 19.599 6.05208 19.375 6.75 19.375C7.46875 19.375 8.05208 19.6042 8.5 20.0625C8.94792 20.5104 9.17188 21.0833 9.17188 21.7812C9.17188 22.4688 8.95312 23.0417 8.51562 23.5C8.07812 23.9583 7.48958 24.1875 6.75 24.1875C6.02083 24.1875 5.4375 23.9583 5 23.5C4.5625 23.0417 4.34375 22.4688 4.34375 21.7812Z" fill="#DADADA"/>
</svg>
