<svg width="20" height="19" viewBox="0 0 20 19" fill="none" xmlns="http://www.w3.org/2000/svg">
<path d="M1.3749 8.17945C6.74359 5.49813 10.3236 3.73044 12.1148 2.87638C17.2292 0.437868 18.2919 0.0142721 18.9846 0.000135604C19.1369 -0.00279163 19.4776 0.0404885 19.6982 0.245728C19.8845 0.419028 19.9358 0.653132 19.9603 0.817439C19.9848 0.981746 20.0154 1.35604 19.9911 1.64851C19.714 4.98665 18.5147 13.0874 17.9046 16.8262C17.6465 18.4082 17.1382 18.9387 16.6461 18.9906C15.5766 19.1034 14.7645 18.1804 13.7287 17.402C12.1078 16.1841 11.1921 15.4259 9.61879 14.2374C7.80053 12.8638 8.97923 12.1089 10.0154 10.8752C10.2866 10.5523 14.9987 5.63915 15.0899 5.19345C15.1013 5.1377 15.1119 4.92992 15.0042 4.82021C14.8965 4.71049 14.7376 4.74801 14.6229 4.77785C14.4604 4.82015 11.871 6.78204 6.85486 10.6635C6.11988 11.2421 5.45416 11.524 4.8577 11.5092C4.20015 11.4929 2.93528 11.083 1.99498 10.7326C0.84166 10.3029 -0.0749729 10.0757 0.00484519 9.3458C0.0464194 8.96565 0.503103 8.57687 1.3749 8.17945Z" fill="white"/>
</svg>
