<svg width="24" height="24" viewBox="0 0 24 24" fill="none" xmlns="http://www.w3.org/2000/svg">
<g clip-path="url(#clip0_210_946)">
<mask id="mask0_210_946" style="mask-type:luminance" maskUnits="userSpaceOnUse" x="0" y="0" width="24" height="24">
<path d="M23.3333 0.333008H0V23.6663H23.3333V0.333008Z" fill="white"/>
</mask>
<g mask="url(#mask0_210_946)">
<path d="M11.1878 23.6663H12.1594C17.4336 23.6663 20.0713 23.6663 21.7093 22.0283C23.3473 20.3903 23.3333 17.7537 23.3333 12.4924V11.5068C23.3333 6.24659 23.3333 3.60901 21.7093 1.97101C20.0853 0.333013 17.4336 0.333008 12.1594 0.333008H11.1878C5.91265 0.333008 3.27599 0.333013 1.63799 1.97101C-1.04308e-06 3.60901 0 6.24473 0 11.5068V12.4924C0 17.7537 -1.04308e-06 20.3903 1.63799 22.0283C3.27599 23.6663 5.91265 23.6663 11.1878 23.6663Z" fill="#030B28"/>
<path d="M12.5206 17.1559C7.25944 17.1559 4.06652 13.5057 3.94238 7.43994H6.60705C6.69011 11.8957 8.71731 13.7866 10.2713 14.172V7.43994H12.8259V11.2843C14.3248 11.1182 15.8928 9.36914 16.421 7.43994H18.9326C18.5303 9.81341 16.8233 11.5625 15.6156 12.284C16.8233 12.8673 18.7665 14.3942 19.5159 17.1559H16.7542C16.1709 15.3098 14.7411 13.8799 12.8259 13.6858V17.1559H12.5206Z" fill="white"/>
</g>
</g>
<defs>
<clipPath id="clip0_210_946">
<rect width="23.3333" height="23.3333" fill="white" transform="translate(0 0.333008)"/>
</clipPath>
</defs>
</svg>
