<svg width="20" height="20" viewBox="0 0 20 20" fill="none" xmlns="http://www.w3.org/2000/svg">
<path fill-rule="evenodd" clip-rule="evenodd" d="M10.4224 20H9.5896C5.068 20 2.808 20 1.40399 18.596C0 17.192 0 14.932 0 10.4224V9.57761C0 5.06721 0 2.80801 1.40399 1.404C2.808 4.02331e-06 5.068 0 9.5896 0H10.4224C14.9432 0 17.216 4.02331e-06 18.608 1.404C20 2.80801 20 5.0688 20 9.57761V10.4224V10.5361C20.0001 14.9701 20.0002 17.2038 18.608 18.596C17.204 20 14.9432 20 10.4224 20ZM3.37952 6.0918C3.48592 11.291 6.22272 14.4198 10.7323 14.4198H10.9939V11.4454C12.6356 11.6118 13.8611 12.8374 14.3611 14.4198H16.7283C16.0859 12.0526 14.4203 10.7438 13.3852 10.2438C14.4203 9.6254 15.8835 8.1262 16.2283 6.0918H14.0755C13.6228 7.7454 12.2787 9.2446 10.9939 9.387V6.0918H8.80432V11.8622C7.47232 11.5318 5.73472 9.91102 5.66352 6.0918H3.37952Z" fill="white"/>
</svg>
